<svg width="78" height="56" viewBox="0 0 78 56" fill="none" xmlns="http://www.w3.org/2000/svg">
<path fill-rule="evenodd" clip-rule="evenodd" d="M40.9676 24.5448C41.1071 24.6909 41.1071 24.9277 40.9676 25.0737L35.156 31.1561C35.0165 31.3022 35.0165 31.539 35.156 31.685L36.1667 32.7428C36.3062 32.8889 36.5325 32.8889 36.6721 32.7428L42.4837 26.6605C42.6232 26.5144 42.8495 26.5144 42.989 26.6605L48.8006 32.7428C48.9401 32.8889 49.1664 32.8889 49.3059 32.7428L50.3167 31.685C50.4562 31.539 50.4562 31.3022 50.3167 31.1561L44.5051 25.0737C44.3655 24.9277 44.3655 24.6909 44.5051 24.5448L50.3167 18.4625C50.4562 18.3164 50.4562 18.0796 50.3167 17.9335L49.3059 16.8757C49.1664 16.7297 48.9401 16.7297 48.8006 16.8757L42.989 22.9581C42.8495 23.1042 42.6232 23.1042 42.4837 22.9581L36.6721 16.8757C36.5325 16.7297 36.3062 16.7297 36.1667 16.8757L35.156 17.9335C35.0165 18.0796 35.0164 18.3164 35.156 18.4625L40.9676 24.5448Z" fill="#272727"/>
<path fill-rule="evenodd" clip-rule="evenodd" d="M41.3086 25.9316C41.5059 25.9316 41.6659 26.0991 41.6659 26.3056V34.9074C41.6659 35.1139 41.8259 35.2814 42.0233 35.2814H43.4526C43.65 35.2814 43.81 35.1139 43.81 34.9074V26.3056C43.81 26.0991 43.97 25.9316 44.1673 25.9316H52.3861C52.5835 25.9316 52.7435 25.7641 52.7435 25.5576V24.0617C52.7435 23.8551 52.5835 23.6877 52.3861 23.6877H44.1673C43.97 23.6877 43.81 23.5202 43.81 23.3137V14.7119C43.81 14.5053 43.65 14.3379 43.4526 14.3379H42.0233C41.8259 14.3379 41.6659 14.5053 41.6659 14.7119V23.3137C41.6659 23.5202 41.5059 23.6877 41.3086 23.6877H33.0898C32.8924 23.6877 32.7324 23.8551 32.7324 24.0617V25.5576C32.7324 25.7641 32.8924 25.9316 33.0898 25.9316H41.3086Z" fill="#272727"/>
<path d="M1.30862 20V4.65252H3.77929L8.93002 14.9016V4.65252H11.296V20H8.74158L3.6746 9.99168V20H1.30862ZM13.4631 12.4205C13.4631 10.5919 13.7318 9.08786 14.2692 7.90836C14.8136 6.72188 15.522 5.839 16.3944 5.25972C17.2668 4.68043 18.3242 4.39079 19.5665 4.39079C21.3671 4.39079 22.8328 5.07825 23.9634 6.45318C25.1011 7.8281 25.6699 9.78579 25.6699 12.3263C25.6699 14.8946 25.0697 16.9012 23.8692 18.3459C22.8153 19.6231 21.3846 20.2617 19.5769 20.2617C17.7553 20.2617 16.3176 19.6301 15.2637 18.3668C14.0633 16.9221 13.4631 14.94 13.4631 12.4205ZM16.0803 12.3158C16.0803 14.0816 16.4153 15.4076 17.0853 16.294C17.7553 17.1734 18.5859 17.6131 19.5769 17.6131C20.575 17.6131 21.402 17.1769 22.0581 16.3045C22.7141 15.4251 23.0422 14.0781 23.0422 12.2634C23.0422 10.4837 22.7211 9.16812 22.079 8.31665C21.4439 7.46517 20.6099 7.03944 19.5769 7.03944C18.544 7.03944 17.703 7.46866 17.0539 8.32712C16.4048 9.18557 16.0803 10.5151 16.0803 12.3158ZM27.6904 20V4.65252H30.1611L35.3118 14.9016V4.65252H37.6778V20H35.1233L30.0564 9.99168V20H27.6904Z" fill="#272727"/>
<path d="M1.30862 20H1.23715V20.0715H1.30862V20ZM1.30862 4.65252V4.58105H1.23715V4.65252H1.30862ZM3.77929 4.65252L3.84315 4.62042L3.82336 4.58105H3.77929V4.65252ZM8.93002 14.9016L8.86616 14.9337L9.00148 14.9016H8.93002ZM8.93002 4.65252V4.58105H8.85855V4.65252H8.93002ZM11.296 4.65252H11.3675V4.58105H11.296V4.65252ZM11.296 20V20.0715H11.3675V20H11.296ZM8.74158 20L8.67781 20.0323L8.69765 20.0715H8.74158V20ZM3.6746 9.99168L3.73836 9.9594L3.60313 9.99168H3.6746ZM3.6746 20V20.0715H3.74607V20H3.6746ZM1.38009 20V4.65252H1.23715V20H1.38009ZM1.30862 4.72398H3.77929V4.58105H1.30862V4.72398ZM3.71543 4.68461L8.86616 14.9337L8.99387 14.8695L3.84315 4.62042L3.71543 4.68461ZM9.00148 14.9016V4.65252H8.85855V14.9016H9.00148ZM8.93002 4.72398H11.296V4.58105H8.93002V4.72398ZM11.2245 4.65252V20H11.3675V4.65252H11.2245ZM11.296 19.9285H8.74158V20.0715H11.296V19.9285ZM8.80534 19.9677L3.73836 9.9594L3.61084 10.024L8.67781 20.0323L8.80534 19.9677ZM3.60313 9.99168V20H3.74607V9.99168H3.60313ZM3.6746 19.9285H1.30862V20.0715H3.6746V19.9285ZM14.2692 7.90836L14.2042 7.87856L14.2041 7.87873L14.2692 7.90836ZM23.9634 6.45318L23.9082 6.49857L23.9084 6.49874L23.9634 6.45318ZM23.8692 18.3459L23.8142 18.3002L23.8141 18.3004L23.8692 18.3459ZM15.2637 18.3668L15.2088 18.4125L15.2089 18.4126L15.2637 18.3668ZM17.0853 16.294L17.0283 16.3371L17.0285 16.3373L17.0853 16.294ZM22.0581 16.3045L22.1152 16.3474L22.1154 16.3472L22.0581 16.3045ZM22.079 8.31665L22.0217 8.35938L22.022 8.35968L22.079 8.31665ZM13.5345 12.4205C13.5345 10.5982 13.8024 9.10519 14.3342 7.93799L14.2041 7.87873C13.6611 9.07053 13.3916 10.5856 13.3916 12.4205H13.5345ZM14.3341 7.93816C14.8743 6.7608 15.575 5.88956 16.4339 5.31925L16.3548 5.20018C15.4689 5.78843 14.7528 6.68296 14.2042 7.87856L14.3341 7.93816ZM16.4339 5.31925C17.2926 4.74911 18.3356 4.46226 19.5665 4.46226V4.31932C18.3128 4.31932 17.241 4.61176 16.3548 5.20018L16.4339 5.31925ZM19.5665 4.46226C21.346 4.46226 22.7913 5.14038 23.9082 6.49857L24.0186 6.40778C22.8742 5.01613 21.3882 4.31932 19.5665 4.31932V4.46226ZM23.9084 6.49874C25.0317 7.85637 25.5984 9.79551 25.5984 12.3263H25.7413C25.7413 9.77608 25.1704 7.79983 24.0185 6.40762L23.9084 6.49874ZM25.5984 12.3263C25.5984 14.8841 25.0007 16.8724 23.8142 18.3002L23.9242 18.3916C25.1386 16.93 25.7413 14.9052 25.7413 12.3263H25.5984ZM23.8141 18.3004C22.7751 19.5595 21.3655 20.1903 19.5769 20.1903V20.3332C21.4037 20.3332 22.8555 19.6867 23.9243 18.3914L23.8141 18.3004ZM19.5769 20.1903C17.774 20.1903 16.3573 19.5662 15.3186 18.3211L15.2089 18.4126C16.2779 19.694 17.7367 20.3332 19.5769 20.3332V20.1903ZM15.3187 18.3212C14.1321 16.8931 13.5345 14.929 13.5345 12.4205H13.3916C13.3916 14.951 13.9945 16.9512 15.2088 18.4125L15.3187 18.3212ZM16.0088 12.3158C16.0088 14.0886 16.3448 15.4329 17.0283 16.3371L17.1423 16.2509C16.4858 15.3823 16.1518 14.0745 16.1518 12.3158H16.0088ZM17.0285 16.3373C17.7102 17.2321 18.5608 17.6845 19.5769 17.6845V17.5416C18.611 17.5416 17.8005 17.1147 17.1422 16.2507L17.0285 16.3373ZM19.5769 17.6845C20.5998 17.6845 21.4471 17.2358 22.1152 16.3474L22.001 16.2615C21.3569 17.1179 20.5502 17.5416 19.5769 17.5416V17.6845ZM22.1154 16.3472C22.7849 15.4497 23.1136 14.0843 23.1136 12.2634H22.9707C22.9707 14.0719 22.6434 15.4004 22.0008 16.2617L22.1154 16.3472ZM23.1136 12.2634C23.1136 10.4776 22.792 9.14336 22.1361 8.27362L22.022 8.35968C22.6503 9.19289 22.9707 10.4898 22.9707 12.2634H23.1136ZM22.1363 8.27392C21.4882 7.40496 20.6332 6.96797 19.5769 6.96797V7.11091C20.5866 7.11091 21.3997 7.52539 22.0217 8.35938L22.1363 8.27392ZM19.5769 6.96797C18.5205 6.96797 17.6588 7.40857 16.9969 8.28401L17.1109 8.37022C17.7472 7.52876 18.5675 7.11091 19.5769 7.11091V6.96797ZM16.9969 8.28401C16.334 9.16078 16.0088 10.5091 16.0088 12.3158H16.1518C16.1518 10.5212 16.4757 9.21036 17.1109 8.37022L16.9969 8.28401ZM27.6904 20H27.6189V20.0715H27.6904V20ZM27.6904 4.65252V4.58105H27.6189V4.65252H27.6904ZM30.1611 4.65252L30.2249 4.62042L30.2051 4.58105H30.1611V4.65252ZM35.3118 14.9016L35.2479 14.9337L35.3832 14.9016H35.3118ZM35.3118 4.65252V4.58105H35.2403V4.65252H35.3118ZM37.6778 4.65252H37.7492V4.58105H37.6778V4.65252ZM37.6778 20V20.0715H37.7492V20H37.6778ZM35.1233 20L35.0596 20.0323L35.0794 20.0715H35.1233V20ZM30.0564 9.99168L30.1201 9.9594L29.9849 9.99168H30.0564ZM30.0564 20V20.0715H30.1278V20H30.0564ZM27.7618 20V4.65252H27.6189V20H27.7618ZM27.6904 4.72398H30.1611V4.58105H27.6904V4.72398ZM30.0972 4.68461L35.2479 14.9337L35.3756 14.8695L30.2249 4.62042L30.0972 4.68461ZM35.3832 14.9016V4.65252H35.2403V14.9016H35.3832ZM35.3118 4.72398H37.6778V4.58105H35.3118V4.72398ZM37.6063 4.65252V20H37.7492V4.65252H37.6063ZM37.6778 19.9285H35.1233V20.0715H37.6778V19.9285ZM35.1871 19.9677L30.1201 9.9594L29.9926 10.024L35.0596 20.0323L35.1871 19.9677ZM29.9849 9.99168V20H30.1278V9.99168H29.9849ZM30.0564 19.9285H27.6904V20.0715H30.0564V19.9285Z" fill="#272727"/>
<path d="M14.5449 45.5903L17.026 45.2972C17.3052 47.2583 18.2195 48.2389 19.7689 48.2389C20.5366 48.2389 21.1403 48.04 21.58 47.6422C22.0197 47.2374 22.2395 46.7384 22.2395 46.1451C22.2395 45.7962 22.1628 45.4996 22.0092 45.2553C21.8557 45.011 21.6219 44.8121 21.3078 44.6586C20.9937 44.498 20.233 44.2328 19.0256 43.8629C17.9438 43.5349 17.1516 43.1789 16.6491 42.7951C16.1466 42.4112 15.7453 41.9087 15.4452 41.2876C15.1521 40.6594 15.0055 39.9859 15.0055 39.267C15.0055 38.4295 15.1939 37.6758 15.5708 37.0058C15.9547 36.3357 16.4816 35.8297 17.1516 35.4878C17.8216 35.1458 18.6487 34.9748 19.6328 34.9748C21.1124 34.9748 22.2675 35.3761 23.098 36.1787C23.9285 36.9813 24.3682 38.1294 24.4171 39.623L21.8731 39.7591C21.7615 38.9355 21.5207 38.3597 21.1508 38.0317C20.7809 37.7037 20.2539 37.5397 19.57 37.5397C18.886 37.5397 18.359 37.6827 17.9891 37.9689C17.6192 38.255 17.4343 38.611 17.4343 39.0367C17.4343 39.4555 17.6018 39.8079 17.9368 40.0941C18.2718 40.3802 19.043 40.6943 20.2504 41.0363C21.5276 41.4062 22.4489 41.797 23.0142 42.2088C23.5865 42.6136 24.0227 43.1406 24.3229 43.7896C24.623 44.4317 24.773 45.2134 24.773 46.1347C24.773 47.4677 24.3612 48.5879 23.5377 49.4952C22.7211 50.4025 21.4404 50.8562 19.6956 50.8562C16.6107 50.8562 14.8938 49.1009 14.5449 45.5903ZM29.7458 50.584V37.8328H26.0084V35.2365H36.0062V37.8328H32.2793V50.584H29.7458ZM48.9982 50.584H46.2344L45.1351 47.0978H40.11L39.0736 50.584H36.3726L41.2721 35.2365H43.9626L48.9982 50.584ZM44.3186 44.512L42.5912 38.8169L40.8847 44.512H44.3186ZM53.1753 50.584V37.8328H49.4379V35.2365H59.4357V37.8328H55.7088V50.584H53.1753ZM61.0061 50.584V35.2365H63.5396V50.584H61.0061ZM74.0399 44.9412L76.5001 45.8939C76.1163 47.6108 75.4776 48.8671 74.5843 49.6627C73.6909 50.4514 72.5917 50.8457 71.2866 50.8457C69.6464 50.8457 68.3169 50.2141 67.2979 48.9508C66.1254 47.4922 65.5391 45.524 65.5391 43.0463C65.5391 40.4291 66.1289 38.3807 67.3084 36.9011C68.3343 35.6169 69.7127 34.9748 71.4436 34.9748C72.8534 34.9748 74.0329 35.4563 74.9821 36.4195C75.6591 37.1035 76.1546 38.119 76.4687 39.466L73.9562 40.1988C73.7956 39.3682 73.4746 38.7331 72.993 38.2934C72.5184 37.8468 71.9566 37.6234 71.3075 37.6234C70.3793 37.6234 69.622 38.0282 69.0358 38.8378C68.4495 39.6474 68.1564 40.984 68.1564 42.8474C68.1564 44.7807 68.4425 46.1556 69.0148 46.9722C69.5871 47.7888 70.3304 48.1971 71.2447 48.1971C71.9147 48.1971 72.494 47.9388 72.9825 47.4224C73.4711 46.8989 73.8236 46.0719 74.0399 44.9412Z" fill="#272727"/>
<path d="M14.5449 45.5903L14.5365 45.5193L14.4668 45.5276L14.4737 45.5974L14.5449 45.5903ZM17.026 45.2972L17.0968 45.2871L17.0869 45.218L17.0176 45.2262L17.026 45.2972ZM21.58 47.6422L21.6279 47.6952L21.6284 47.6948L21.58 47.6422ZM21.3078 44.6586L21.2753 44.7222L21.2764 44.7228L21.3078 44.6586ZM19.0256 43.8629L19.0465 43.7946L19.0463 43.7945L19.0256 43.8629ZM15.4452 41.2876L15.3804 41.3178L15.3808 41.3186L15.4452 41.2876ZM15.5708 37.0058L15.5088 36.9702L15.5085 36.9707L15.5708 37.0058ZM24.4171 39.623L24.4209 39.6944L24.4908 39.6906L24.4885 39.6207L24.4171 39.623ZM21.8731 39.7591L21.8023 39.7687L21.8112 39.834L21.8769 39.8305L21.8731 39.7591ZM20.2504 41.0363L20.2703 40.9677L20.2699 40.9675L20.2504 41.0363ZM23.0142 42.2088L22.9722 42.2666L22.973 42.2672L23.0142 42.2088ZM24.3229 43.7896L24.258 43.8196L24.2581 43.8199L24.3229 43.7896ZM23.5377 49.4952L23.4848 49.4472L23.4846 49.4474L23.5377 49.4952ZM14.5532 45.6613L17.0344 45.3681L17.0176 45.2262L14.5365 45.5193L14.5532 45.6613ZM16.9552 45.3072C17.096 46.2957 17.398 47.0473 17.8688 47.5522C18.3416 48.0593 18.9777 48.3104 19.7689 48.3104V48.1675C19.0106 48.1675 18.4148 47.9283 17.9734 47.4548C17.5299 46.9791 17.2352 46.2598 17.0968 45.2871L16.9552 45.3072ZM19.7689 48.3104C20.5489 48.3104 21.1716 48.1081 21.6279 47.6952L21.532 47.5892C21.109 47.972 20.5242 48.1675 19.7689 48.1675V48.3104ZM21.6284 47.6948C22.0827 47.2766 22.311 46.7585 22.311 46.1451H22.1681C22.1681 46.7182 21.9567 47.1982 21.5316 47.5896L21.6284 47.6948ZM22.311 46.1451C22.311 45.7856 22.2318 45.4751 22.0697 45.2173L21.9487 45.2933C22.0937 45.524 22.1681 45.8068 22.1681 46.1451H22.311ZM22.0697 45.2173C21.9077 44.9595 21.6627 44.7525 21.3392 44.5944L21.2764 44.7228C21.5811 44.8717 21.8036 45.0625 21.9487 45.2933L22.0697 45.2173ZM21.3403 44.5949C21.0195 44.4309 20.2521 44.1639 19.0465 43.7946L19.0046 43.9313C20.2139 44.3017 20.9679 44.5651 21.2753 44.7222L21.3403 44.5949ZM19.0463 43.7945C17.9673 43.4673 17.1848 43.1144 16.6925 42.7383L16.6057 42.8519C17.1184 43.2435 17.9203 43.6024 19.0048 43.9313L19.0463 43.7945ZM16.6925 42.7383C16.1997 42.3618 15.8052 41.8685 15.5095 41.2565L15.3808 41.3186C15.6854 41.949 16.0935 42.4606 16.6057 42.8519L16.6925 42.7383ZM15.5099 41.2573C15.2214 40.639 15.077 39.9759 15.077 39.267H14.934C14.934 39.996 15.0827 40.6798 15.3804 41.3178L15.5099 41.2573ZM15.077 39.267C15.077 38.4407 15.2628 37.6992 15.6331 37.0408L15.5085 36.9707C15.1251 37.6524 14.934 38.4184 14.934 39.267H15.077ZM15.6328 37.0413C16.01 36.383 16.5268 35.8869 17.1841 35.5514L17.1191 35.4241C16.4364 35.7726 15.8994 36.2885 15.5088 36.9702L15.6328 37.0413ZM17.1841 35.5514C17.8415 35.2159 18.6566 35.0462 19.6328 35.0462V34.9033C18.6407 34.9033 17.8018 35.0756 17.1191 35.4241L17.1841 35.5514ZM19.6328 35.0462C21.0993 35.0462 22.2346 35.4437 23.0483 36.2301L23.1477 36.1273C22.3003 35.3085 21.1255 34.9033 19.6328 34.9033V35.0462ZM23.0483 36.2301C23.8619 37.0163 24.2972 38.1446 24.3456 39.6253L24.4885 39.6207C24.4392 38.1142 23.9951 36.9463 23.1477 36.1273L23.0483 36.2301ZM24.4133 39.5516L21.8693 39.6877L21.8769 39.8305L24.4209 39.6944L24.4133 39.5516ZM21.9439 39.7495C21.8314 38.9196 21.5871 38.3231 21.1982 37.9782L21.1033 38.0852C21.4542 38.3963 21.6915 38.9514 21.8023 39.7687L21.9439 39.7495ZM21.1982 37.9782C20.8109 37.6348 20.2647 37.4682 19.57 37.4682V37.6111C20.2432 37.6111 20.7508 37.7725 21.1033 38.0852L21.1982 37.9782ZM19.57 37.4682C18.8772 37.4682 18.3325 37.613 17.9454 37.9124L18.0329 38.0254C18.3856 37.7525 18.8948 37.6111 19.57 37.6111V37.4682ZM17.9454 37.9124C17.56 38.2105 17.3628 38.5865 17.3628 39.0367H17.5058C17.5058 38.6355 17.6785 38.2996 18.0329 38.0254L17.9454 37.9124ZM17.3628 39.0367C17.3628 39.4776 17.5404 39.8495 17.8904 40.1484L17.9832 40.0398C17.6632 39.7664 17.5058 39.4334 17.5058 39.0367H17.3628ZM17.8904 40.1484C18.0668 40.2991 18.3519 40.4526 18.7395 40.6104C19.1284 40.7688 19.6258 40.9337 20.231 41.1051L20.2699 40.9675C19.6676 40.7969 19.1757 40.6337 18.7934 40.4781C18.4098 40.3218 18.1418 40.1752 17.9832 40.0398L17.8904 40.1484ZM20.2306 41.1049C21.5056 41.4742 22.4171 41.8623 22.9722 42.2666L23.0563 42.1511C22.4807 41.7318 21.5497 41.3382 20.2703 40.9677L20.2306 41.1049ZM22.973 42.2672C23.5348 42.6646 23.963 43.1817 24.258 43.8196L24.3877 43.7596C24.0825 43.0995 23.6382 42.5626 23.0555 42.1505L22.973 42.2672ZM24.2581 43.8199C24.5527 44.4501 24.7016 45.2209 24.7016 46.1347H24.8445C24.8445 45.206 24.6933 44.4133 24.3876 43.7594L24.2581 43.8199ZM24.7016 46.1347C24.7016 47.4517 24.2953 48.5542 23.4848 49.4472L23.5906 49.5432C24.4272 48.6216 24.8445 47.4838 24.8445 46.1347H24.7016ZM23.4846 49.4474C22.6865 50.3341 21.4291 50.7847 19.6956 50.7847V50.9276C21.4518 50.9276 22.7557 50.4709 23.5908 49.543L23.4846 49.4474ZM19.6956 50.7847C18.1672 50.7847 16.9871 50.3503 16.1454 49.4897C15.3023 48.6278 14.7895 47.3292 14.616 45.5832L14.4737 45.5974C14.6491 47.3619 15.1693 48.6963 16.0432 49.5897C16.9183 50.4844 18.1391 50.9276 19.6956 50.9276V50.7847ZM29.7458 50.584H29.6743V50.6555H29.7458V50.584ZM29.7458 37.8328H29.8172V37.7613H29.7458V37.8328ZM26.0084 37.8328H25.9369V37.9043H26.0084V37.8328ZM26.0084 35.2365V35.165H25.9369V35.2365H26.0084ZM36.0062 35.2365H36.0777V35.165H36.0062V35.2365ZM36.0062 37.8328V37.9043H36.0777V37.8328H36.0062ZM32.2793 37.8328V37.7613H32.2078V37.8328H32.2793ZM32.2793 50.584V50.6555H32.3507V50.584H32.2793ZM29.8172 50.584V37.8328H29.6743V50.584H29.8172ZM29.7458 37.7613H26.0084V37.9043H29.7458V37.7613ZM26.0798 37.8328V35.2365H25.9369V37.8328H26.0798ZM26.0084 35.308H36.0062V35.165H26.0084V35.308ZM35.9347 35.2365V37.8328H36.0777V35.2365H35.9347ZM36.0062 37.7613H32.2793V37.9043H36.0062V37.7613ZM32.2078 37.8328V50.584H32.3507V37.8328H32.2078ZM32.2793 50.5125H29.7458V50.6555H32.2793V50.5125ZM48.9982 50.584V50.6555H49.0968L49.0661 50.5617L48.9982 50.584ZM46.2344 50.584L46.1662 50.6055L46.182 50.6555H46.2344V50.584ZM45.1351 47.0978L45.2033 47.0763L45.1875 47.0264H45.1351V47.0978ZM40.11 47.0978V47.0264H40.0567L40.0415 47.0775L40.11 47.0978ZM39.0736 50.584V50.6555H39.1269L39.1421 50.6044L39.0736 50.584ZM36.3726 50.584L36.3045 50.5623L36.2748 50.6555H36.3726V50.584ZM41.2721 35.2365V35.165H41.2199L41.204 35.2148L41.2721 35.2365ZM43.9626 35.2365L44.0305 35.2142L44.0144 35.165H43.9626V35.2365ZM44.3186 44.512V44.5835H44.4149L44.3869 44.4912L44.3186 44.512ZM42.5912 38.8169L42.6596 38.7961L42.5908 38.5693L42.5227 38.7964L42.5912 38.8169ZM40.8847 44.512L40.8163 44.4915L40.7887 44.5835H40.8847V44.512ZM48.9982 50.5125H46.2344V50.6555H48.9982V50.5125ZM46.3025 50.5625L45.2033 47.0763L45.067 47.1193L46.1662 50.6055L46.3025 50.5625ZM45.1351 47.0264H40.11V47.1693H45.1351V47.0264ZM40.0415 47.0775L39.0051 50.5636L39.1421 50.6044L40.1785 47.1182L40.0415 47.0775ZM39.0736 50.5125H36.3726V50.6555H39.0736V50.5125ZM36.4407 50.6057L41.3402 35.2582L41.204 35.2148L36.3045 50.5623L36.4407 50.6057ZM41.2721 35.308H43.9626V35.165H41.2721V35.308ZM43.8947 35.2588L48.9303 50.6063L49.0661 50.5617L44.0305 35.2142L43.8947 35.2588ZM44.3869 44.4912L42.6596 38.7961L42.5228 38.8376L44.2502 44.5327L44.3869 44.4912ZM42.5227 38.7964L40.8163 44.4915L40.9532 44.5325L42.6596 38.8374L42.5227 38.7964ZM40.8847 44.5835H44.3186V44.4405H40.8847V44.5835ZM53.1753 50.584H53.1038V50.6555H53.1753V50.584ZM53.1753 37.8328H53.2468V37.7613H53.1753V37.8328ZM49.4379 37.8328H49.3664V37.9043H49.4379V37.8328ZM49.4379 35.2365V35.165H49.3664V35.2365H49.4379ZM59.4357 35.2365H59.5072V35.165H59.4357V35.2365ZM59.4357 37.8328V37.9043H59.5072V37.8328H59.4357ZM55.7088 37.8328V37.7613H55.6373V37.8328H55.7088ZM55.7088 50.584V50.6555H55.7802V50.584H55.7088ZM53.2468 50.584V37.8328H53.1038V50.584H53.2468ZM53.1753 37.7613H49.4379V37.9043H53.1753V37.7613ZM49.5093 37.8328V35.2365H49.3664V37.8328H49.5093ZM49.4379 35.308H59.4357V35.165H49.4379V35.308ZM59.3643 35.2365V37.8328H59.5072V35.2365H59.3643ZM59.4357 37.7613H55.7088V37.9043H59.4357V37.7613ZM55.6373 37.8328V50.584H55.7802V37.8328H55.6373ZM55.7088 50.5125H53.1753V50.6555H55.7088V50.5125ZM61.0061 50.584H60.9346V50.6555H61.0061V50.584ZM61.0061 35.2365V35.165H60.9346V35.2365H61.0061ZM63.5396 35.2365H63.611V35.165H63.5396V35.2365ZM63.5396 50.584V50.6555H63.611V50.584H63.5396ZM61.0775 50.584V35.2365H60.9346V50.584H61.0775ZM61.0061 35.308H63.5396V35.165H61.0061V35.308ZM63.4681 35.2365V50.584H63.611V35.2365H63.4681ZM63.5396 50.5125H61.0061V50.6555H63.5396V50.5125ZM74.0399 44.9412L74.0657 44.8746L73.9858 44.8436L73.9697 44.9278L74.0399 44.9412ZM76.5001 45.8939L76.5699 45.9095L76.5833 45.8495L76.5259 45.8272L76.5001 45.8939ZM74.5843 49.6627L74.6316 49.7163L74.6318 49.7161L74.5843 49.6627ZM67.2979 48.9508L67.2422 48.9956L67.2423 48.9957L67.2979 48.9508ZM67.3084 36.9011L67.2525 36.8565L67.2525 36.8565L67.3084 36.9011ZM74.9821 36.4195L74.9312 36.4697L74.9313 36.4698L74.9821 36.4195ZM76.4687 39.466L76.4887 39.5346L76.5537 39.5156L76.5383 39.4497L76.4687 39.466ZM73.9562 40.1988L73.886 40.2123L73.9009 40.2894L73.9762 40.2674L73.9562 40.1988ZM72.993 38.2934L72.944 38.3455L72.9448 38.3462L72.993 38.2934ZM72.9825 47.4224L73.0345 47.4715L73.0348 47.4711L72.9825 47.4224ZM74.0141 45.0079L76.4743 45.9605L76.5259 45.8272L74.0657 44.8746L74.0141 45.0079ZM76.4304 45.8783C76.0483 47.5872 75.4148 48.8274 74.5368 49.6093L74.6318 49.7161C75.5405 48.9068 76.1842 47.6345 76.5699 45.9095L76.4304 45.8783ZM74.537 49.6091C73.658 50.3851 72.5761 50.7742 71.2866 50.7742V50.9172C72.6073 50.9172 73.7239 50.5176 74.6316 49.7163L74.537 49.6091ZM71.2866 50.7742C69.6678 50.7742 68.3588 50.1522 67.3535 48.906L67.2423 48.9957C68.275 50.276 69.6251 50.9172 71.2866 50.9172V50.7742ZM67.3536 48.9061C66.1942 47.4637 65.6106 45.513 65.6106 43.0463H65.4677C65.4677 45.535 66.0566 47.5206 67.2422 48.9956L67.3536 48.9061ZM65.6106 43.0463C65.6106 40.4392 66.1981 38.4085 67.3643 36.9456L67.2525 36.8565C66.0597 38.3529 65.4677 40.419 65.4677 43.0463H65.6106ZM67.3642 36.9457C68.3758 35.6795 69.7331 35.0462 71.4436 35.0462V34.9033C69.6923 34.9033 68.2929 35.5543 67.2525 36.8565L67.3642 36.9457ZM71.4436 35.0462C72.8352 35.0462 73.9961 35.5208 74.9312 36.4697L75.033 36.3693C74.0698 35.3919 72.8717 34.9033 71.4436 34.9033V35.0462ZM74.9313 36.4698C75.5958 37.1411 76.0868 38.1427 76.3991 39.4822L76.5383 39.4497C76.2225 38.0952 75.7224 37.0658 75.0329 36.3692L74.9313 36.4698ZM76.4487 39.3973L73.9361 40.1302L73.9762 40.2674L76.4887 39.5346L76.4487 39.3973ZM74.0263 40.1852C73.8638 39.3441 73.5371 38.6934 73.0412 38.2407L72.9448 38.3462C73.4121 38.7728 73.7275 39.3924 73.886 40.2123L74.0263 40.1852ZM73.042 38.2414C72.5542 37.7823 71.9749 37.552 71.3075 37.552V37.6949C71.9383 37.6949 72.4826 37.9112 72.944 38.3455L73.042 38.2414ZM71.3075 37.552C70.3544 37.552 69.5764 37.9694 68.9779 38.7959L69.0936 38.8797C69.6677 38.087 70.4042 37.6949 71.3075 37.6949V37.552ZM68.9779 38.7959C68.3779 39.6244 68.0849 40.9801 68.0849 42.8474H68.2278C68.2278 40.9878 68.5211 39.6704 69.0936 38.8797L68.9779 38.7959ZM68.0849 42.8474C68.0849 44.7838 68.3707 46.1777 68.9563 47.0132L69.0733 46.9312C68.5143 46.1335 68.2278 44.7776 68.2278 42.8474H68.0849ZM68.9563 47.0132C69.5406 47.8469 70.3047 48.2685 71.2447 48.2685V48.1256C70.3561 48.1256 69.6337 47.7307 69.0733 46.9312L68.9563 47.0132ZM71.2447 48.2685C71.9357 48.2685 72.5333 48.0012 73.0345 47.4715L72.9306 47.3732C72.4547 47.8764 71.8938 48.1256 71.2447 48.1256V48.2685ZM73.0348 47.4711C73.5366 46.9335 73.8926 46.0912 74.1101 44.9547L73.9697 44.9278C73.7545 46.0525 73.4056 46.8643 72.9303 47.3736L73.0348 47.4711Z" fill="#272727"/>
</svg>
