<svg width="81" height="80" viewBox="0 0 81 80" fill="none" xmlns="http://www.w3.org/2000/svg">
<path fill-rule="evenodd" clip-rule="evenodd" d="M30.7219 44.2857L10.1954 64.8122C9.63762 65.37 9.63762 66.2747 10.1954 66.8325L14.236 70.8731C14.7938 71.4309 15.6985 71.4309 16.2563 70.8731L36.2143 50.9152V78.5714C36.2143 79.3603 36.854 80 37.6429 80H43.3571C44.146 80 44.7857 79.3603 44.7857 78.5714V50.9152L64.7437 70.8731C65.3015 71.4309 66.2062 71.4309 66.764 70.8731L70.8046 66.8325C71.3624 66.2747 71.3624 65.37 70.8046 64.8122L50.2781 44.2857H79.0714C79.8603 44.2857 80.5 43.646 80.5 42.8571V37.1429C80.5 36.354 79.8603 35.7143 79.0714 35.7143H51.4152L70.8046 16.3249C71.3625 15.767 71.3624 14.8624 70.8046 14.3046L66.764 10.264C66.2062 9.70616 65.3016 9.70607 64.7437 10.264L44.7857 30.2219V1.42857C44.7857 0.639594 44.146 0 43.3571 0H37.6429C36.854 0 36.2143 0.639594 36.2143 1.42857V30.2219L16.2563 10.264C15.6984 9.70607 14.7938 9.70616 14.236 10.264L10.1954 14.3046C9.63762 14.8624 9.63753 15.767 10.1954 16.3249L29.5848 35.7143H1.92857C1.13959 35.7143 0.5 36.354 0.5 37.1429V42.8571C0.5 43.646 1.13959 44.2857 1.92857 44.2857H30.7219Z" fill="#272727"/>
</svg>
