<svg width="142" height="132" viewBox="0 0 142 132" fill="none" xmlns="http://www.w3.org/2000/svg">
<g opacity="0.4">
<path d="M46.8308 3.11095C46.875 3.11095 46.9102 3.11301 46.9124 3.12126C47.0098 3.56514 47.0539 4.10178 47.0554 4.55322C47.2441 5.73575 47.4185 6.92585 47.5795 8.12418C47.6783 8.16679 47.691 8.30352 47.6543 8.39903C47.8377 9.2648 47.9628 10.1347 48.0286 11.0087C48.1873 11.2925 48.2892 11.6429 48.2532 11.97C48.638 13.3917 48.9629 14.8422 49.2294 16.292C49.2451 16.3786 49.2511 16.4672 49.2481 16.5552C49.2481 16.562 49.192 16.4514 49.3005 16.5022C49.3357 16.4988 49.3619 16.5036 49.3747 16.538C49.3814 16.5943 49.3709 16.6527 49.3747 16.7084C49.3185 16.8602 49.3185 17.0203 49.3747 17.1894C49.3994 17.3076 49.4353 17.3584 49.4495 17.5329C49.4241 17.8394 49.3994 18.1369 49.3747 18.4255C49.433 19.7523 49.4353 21.0819 49.3747 22.4087C49.436 25.5674 49.433 28.7268 49.3747 31.8855C49.4301 32.3424 49.4293 32.8014 49.3747 33.2591C49.3949 33.5951 49.4196 33.9386 49.4495 34.2891C49.4495 34.5632 49.4518 34.8394 49.4495 35.1129L49.3747 35.6626C49.3717 36.0048 49.3747 36.3504 49.3747 36.6926C49.3447 36.9249 49.3193 37.1543 49.2998 37.379C49.3559 38.7285 49.3589 40.0815 49.2998 41.431C49.3208 41.9058 49.3455 42.3868 49.3747 42.8733C49.3747 43.4216 49.3747 43.9726 49.3747 44.5217C49.3537 44.5814 49.3282 44.5808 49.2998 44.5217C49.2227 44.0372 49.21 44.3073 49.2624 45.3325L49.2249 45.6891C49.2811 47.611 49.2811 49.5356 49.2249 51.4575C49.2451 51.7467 49.2699 52.0443 49.2998 52.35C49.2998 52.6922 49.3043 53.0378 49.2998 53.38L49.2249 53.7923C49.2234 53.8837 49.2249 53.9757 49.2249 54.0671C49.1987 54.1853 49.174 54.2994 49.1501 54.4107C49.1501 55.1658 49.1748 55.8983 49.2249 56.6081C49.2249 57.8875 49.1987 59.1752 49.2249 60.4539C49.204 60.5137 49.1785 60.513 49.1501 60.4539L49.1141 60.2045C49.0879 60.2684 49.1044 61.0242 49.1134 61.1452C49.1134 61.1493 49.1029 61.0861 49.1501 61.0716C49.171 61.0119 49.1965 61.0126 49.2249 61.0716C49.2324 61.1981 49.2002 61.3747 49.2249 61.4839C49.2414 61.5897 49.2811 61.6894 49.3747 61.7588C49.3971 61.7918 49.484 61.8646 49.5244 61.8962C49.8463 62.0425 50.0858 61.8563 50.1225 61.5526C50.4542 60.9864 50.6226 59.9619 50.7566 59.4947C51.3061 57.5749 51.8563 55.6455 52.3669 53.861C52.4141 53.6782 52.4388 53.4948 52.4418 53.3113C52.4522 53.2797 52.4283 53.2364 52.4418 53.2089C52.4567 53.1759 52.4799 53.1704 52.5159 53.1739C52.5892 53.0564 52.6139 52.8997 52.5907 52.7616C52.7472 52.3432 52.8243 52.0078 52.9343 51.6121C53.1267 50.9201 53.2465 50.1925 53.4883 49.4655V49.1219C53.5265 49.0134 53.6051 48.9268 53.6381 48.8471C53.6755 48.7268 53.7032 48.619 53.6381 48.5035C53.6485 48.4609 53.7496 48.3317 53.7878 48.2287C53.8132 48.116 53.8132 48.0019 53.7878 47.8851C53.817 47.7827 53.9016 47.624 53.9375 47.4728C54.0258 47.3485 54.052 47.1465 54.0124 46.9919C54.1509 46.4154 54.2609 45.8183 54.3867 45.2747C54.4907 45.1923 54.5162 45.0775 54.4615 44.9312C54.478 44.8707 54.5821 44.6921 54.6113 44.5876C54.5948 44.4461 54.6203 44.3038 54.6861 44.1754C54.7071 44.0654 54.7415 43.941 54.761 43.8318C54.8052 43.6573 54.8553 43.4511 54.9107 43.2134C54.9017 42.9591 54.9511 42.7077 55.0604 42.4582C55.0799 42.305 55.0559 42.2521 55.0604 42.1834C55.1136 42.1044 55.163 41.9669 55.2102 41.7711C55.2221 41.6351 55.2701 41.477 55.285 41.3588C55.3374 41.2585 55.3374 41.1445 55.285 41.0153C55.318 40.8923 55.3966 40.7755 55.4347 40.6717C55.4639 40.5528 55.4639 40.4388 55.4347 40.3282C55.4677 40.1935 55.547 40.0512 55.5845 39.9159L55.6593 39.1607C55.6616 39.1381 55.6571 39.1147 55.6593 39.092C55.8233 38.9086 55.839 38.6351 55.8091 38.4056C55.83 38.2826 55.9318 38.0758 55.9588 37.9246C56.0381 37.8483 55.9925 37.6882 55.9588 37.581C55.9745 37.4979 56.0793 37.2808 56.1085 37.1001C56.1759 36.8781 56.232 36.6431 56.1834 36.4136C56.1991 36.3442 56.1527 36.2467 56.2582 36.2075C56.3361 36.2515 56.2927 36.0721 56.2582 36.0014C56.2635 35.8852 56.3279 35.8275 56.3331 35.7952C56.3331 35.7286 56.3578 35.6365 56.408 35.5204C56.4244 35.3905 56.4514 35.1514 56.4828 35.0394C56.655 34.7955 56.8901 34.4979 57.1633 34.825C58.0063 36.0508 58.8268 37.2897 59.6248 38.5416L59.7745 38.8165C59.8232 38.9072 59.8905 38.9787 59.9242 39.0913L59.9991 40.5336C59.9961 40.6092 60.0215 40.7068 59.9242 40.7397C59.8658 40.7796 59.8658 40.8483 59.9242 40.9459C59.907 41.0703 59.8067 41.2462 59.7745 41.3582C59.7101 41.567 59.6847 41.7732 59.6996 41.9766C59.6914 42.002 59.6308 42.0267 59.6248 42.0453C59.5439 42.2555 59.5192 42.4617 59.5499 42.6637C59.5185 42.799 59.4376 42.9537 59.4002 43.076C59.3193 43.2862 59.2946 43.4923 59.3253 43.6944C59.2991 43.8077 59.1936 43.9617 59.1756 44.0379L59.1007 44.3815C59.0738 44.4955 59.0596 44.5945 59.0259 44.725C58.9398 44.8968 58.8964 45.0892 58.951 45.2747C58.9173 45.395 58.8327 45.5214 58.8013 45.6183C58.7212 45.8279 58.6965 46.034 58.7264 46.2367C58.6942 46.3432 58.5992 46.4449 58.5767 46.5116C58.5123 46.717 58.4869 46.9231 58.5018 47.13C58.4936 47.1554 58.4322 47.1808 58.427 47.1987C58.4098 47.4124 58.3596 47.6185 58.2773 47.8171C58.0909 48.6073 57.9441 49.3885 57.6791 50.1519C57.5893 50.3395 57.5646 50.5223 57.6043 50.7016C57.5361 50.9909 57.4104 51.3125 57.3048 51.5942C57.2254 51.7584 57.2007 51.9185 57.2299 52.0752C57.0967 52.5527 56.9492 53.0481 56.7808 53.5174C56.7014 53.6817 56.6767 53.8418 56.7059 53.9984C56.6281 54.2705 56.5068 54.555 56.4065 54.8223C56.3264 54.9865 56.3017 55.1473 56.3316 55.3033C56.2073 55.7396 56.0486 56.1828 55.8824 56.6081C55.821 56.771 55.7963 56.9317 55.8076 57.0891C55.7963 57.1152 55.7402 57.1379 55.7327 57.1578C55.6533 57.3213 55.6286 57.4821 55.6578 57.6388C55.2596 58.8612 54.8695 60.3055 54.3859 61.5533L54.2362 62.0343C54.213 62.2033 54.1636 62.3634 54.0865 62.5153C53.1784 65.5537 52.1049 68.6265 51.1317 71.3716C50.8008 72.3054 50.4676 73.3361 50.0462 74.2589C49.9676 74.3771 49.9429 74.4918 49.9713 74.6024C49.9182 74.7158 49.8972 74.7179 49.8268 74.9082C49.5229 75.73 49.1942 76.5435 48.906 77.3681C48.8566 77.4574 48.7271 77.6031 48.6245 77.6244C48.4688 77.6938 48.1619 77.6821 48.0264 77.5557C47.852 77.4176 47.6768 77.3282 47.5024 77.2121C47.3893 77.0877 47.2643 76.9737 47.128 76.8686C46.8031 76.659 46.4588 76.4164 46.1556 76.1821C46.077 76.0351 45.949 75.9554 45.7813 75.9073C45.6832 75.8241 45.3523 75.5788 45.3366 75.5555C45.3067 75.5129 45.4137 75.4119 45.3935 75.3679C45.3853 75.3493 45.3179 75.4153 45.258 75.2202C45.273 74.4444 45.2984 73.6432 45.3329 72.8166C45.3111 72.6847 45.2864 72.5472 45.258 72.4043C45.258 72.3129 45.258 72.2209 45.258 72.1295C45.2864 71.8003 45.3119 71.4801 45.3329 71.1682C45.362 70.6364 45.3868 70.11 45.4077 69.5885C45.3531 68.8334 45.3531 68.0769 45.4077 67.3224C45.4077 66.6607 45.3823 66.0196 45.3329 65.3998C45.3329 64.9429 45.3321 64.4832 45.3329 64.0263L45.4077 63.9576C45.4549 63.1117 45.4796 62.2652 45.4826 61.4166C45.4249 60.7769 45.4234 60.133 45.4826 59.494C45.4631 59.2748 45.4377 59.046 45.4077 58.8076C45.4122 58.4139 45.4788 58.0463 45.4826 57.6402C45.5125 57.3557 45.5372 57.0815 45.5574 56.8163C45.502 56.2687 45.4983 55.7155 45.5574 55.1679C45.5013 53.7284 45.5065 52.2813 45.5574 50.8411C45.529 50.3423 45.5043 49.8393 45.4826 49.3301C45.4279 49.0958 45.276 48.9536 45.1831 48.7804C45.115 48.5475 44.8335 48.5523 44.6591 48.8491C44.4787 49.2408 44.3911 50.0227 44.2099 50.5663C44.1575 50.6886 44.1575 50.8026 44.2099 50.9098C44.1673 51.1888 44.0377 51.588 43.9696 51.8848C43.766 52.7623 43.5654 53.549 43.358 54.4121C42.786 56.7923 42.2044 58.9924 41.5568 61.3506C40.8816 63.8091 40.4368 66.0191 39.6178 68.4584C39.5811 68.5986 39.3931 68.9318 39.3476 69.1783C39.1369 69.5885 38.8191 70.1732 38.5863 70.5745C37.6041 72.2669 36.5822 73.9476 35.5469 75.6132C34.9068 76.6418 34.0294 77.7556 33.4732 78.7918C33.2291 79.2453 32.9851 79.6665 33.2875 80.1667C33.3392 80.2547 33.4141 80.3234 33.5121 80.3729C36.4085 80.3632 39.3012 80.3866 42.1909 80.4416C42.3324 80.4897 42.5203 80.6402 42.5652 80.7851C42.5809 81.9464 42.5517 83.131 42.4903 84.2874C42.4005 84.4434 42.417 84.5313 42.1909 84.631C39.3252 84.5994 36.4325 84.5767 33.5121 84.5622L33.3624 84.7684C33.0121 85.4363 33.1431 85.5558 33.5256 86.1632C34.9135 88.3682 37.0389 91.0995 38.8723 92.9644C39.138 93.2344 39.5977 93.6419 39.6059 94.0074C39.6104 94.2115 38.7233 95.3404 38.5241 95.55C38.4755 95.6434 38.4006 95.7087 38.2996 95.7561C38.2524 95.7706 38.0592 95.809 38.0226 95.8077C37.8324 95.8008 36.5942 94.5399 36.3539 94.3139C36.3756 94.2843 36.315 94.1785 36.2042 94.1764C35.5716 93.5738 34.8087 92.9101 34.2592 92.2539C34.1777 92.135 34.0773 92.0436 33.9598 91.979C33.6094 91.6025 33.2127 91.2692 32.8795 90.8755C32.2597 90.1424 31.815 89.1996 31.1165 88.5448C30.9833 88.4294 30.9219 88.4307 30.7422 88.4761C30.6644 88.5372 30.4802 88.8554 30.4428 88.9571C30.3941 89.2972 30.3634 89.6483 30.4428 89.9871C30.4435 90.0097 30.4413 90.0331 30.4428 90.0558L30.5176 90.3993C30.6913 92.5418 31.014 95.3301 31.4572 97.4375C31.526 97.7666 31.6024 97.9357 31.9393 98.0903C32.1841 98.1418 32.4423 98.1508 32.6871 98.0903C32.8908 98.102 33.0824 98.1432 33.2853 98.159C33.6791 98.2339 34.0863 98.2043 34.4823 98.159C34.656 98.1721 34.8222 98.2126 35.0064 98.2277C35.3777 98.2861 35.752 98.2861 36.1286 98.2277C36.4145 98.2696 36.6204 98.5197 36.708 98.7609C36.9034 99.303 37.1938 100.929 37.2507 101.524C37.1953 101.657 37.1991 101.802 37.2507 101.936C37.2462 101.958 37.1871 101.982 37.1759 102.005C36.9887 102.208 36.714 102.3 36.3531 102.28C36.1877 102.271 36.0762 102.22 35.9788 102.211C35.5379 102.132 35.0767 102.166 34.6321 102.211C34.385 102.201 34.2196 102.161 34.0339 102.142C33.5174 102.071 32.9821 102.087 32.4626 102.142C32.4528 102.151 32.3181 102.337 32.3128 102.348C32.2559 102.531 32.2806 102.714 32.3128 102.898C32.3211 102.937 32.3757 102.989 32.3877 103.035C32.3211 103.15 32.3525 103.258 32.3877 103.379C32.3997 103.422 32.4506 103.47 32.4626 103.516C32.3959 103.631 32.4266 103.739 32.4626 103.86C32.4745 103.903 32.5254 103.951 32.5374 103.997C32.4708 104.112 32.5015 104.22 32.5374 104.341C32.5494 104.384 32.6003 104.432 32.6123 104.478C32.5457 104.593 32.5764 104.701 32.6123 104.822C32.6243 104.865 32.6752 104.913 32.6871 104.959C32.6205 105.074 32.6512 105.182 32.6871 105.303C32.6991 105.346 32.75 105.394 32.762 105.44C32.6954 105.555 32.7261 105.663 32.762 105.784C32.774 105.827 32.8249 105.875 32.8369 105.921C32.7702 106.036 32.8009 106.144 32.8369 106.265C32.8488 106.308 32.8998 106.356 32.9117 106.402C32.8451 106.517 32.8758 106.625 32.9117 106.746C32.9237 106.789 32.9746 106.837 32.9866 106.883C32.92 106.998 32.9507 107.106 32.9866 107.227C32.9986 107.27 33.0495 107.318 33.0615 107.364C32.9948 107.479 33.0255 107.587 33.0615 107.708C33.0734 107.751 33.1243 107.799 33.1363 107.845C33.0697 107.96 33.1004 108.068 33.1363 108.189C33.1483 108.232 33.1992 108.28 33.2112 108.326C33.1446 108.441 33.1752 108.549 33.2112 108.67C33.2232 108.712 33.2741 108.761 33.286 108.807C33.2194 108.922 33.2501 109.03 33.286 109.151C33.298 109.193 33.3489 109.242 33.3609 109.288C33.2943 109.403 33.325 109.511 33.3609 109.632C33.3729 109.674 33.4238 109.723 33.4358 109.769C33.3691 109.884 33.3998 109.992 33.4358 110.113C33.447 110.155 33.4994 110.204 33.5106 110.25C33.4418 110.386 33.4739 110.522 33.5106 110.663C33.5144 110.678 33.5788 110.704 33.5855 110.731C33.5166 110.867 33.5488 111.003 33.5855 111.144C33.5892 111.159 33.6536 111.185 33.6604 111.212C33.5915 111.348 33.6237 111.484 33.6604 111.625C33.6641 111.64 33.7285 111.666 33.7352 111.693C33.6866 111.826 33.6708 111.974 33.7352 112.105C33.7367 112.128 33.7352 112.152 33.7352 112.174L33.8101 112.586C33.8101 112.609 33.8086 112.633 33.8101 112.655C33.861 112.787 33.8857 112.925 33.8849 113.067C33.8924 113.106 33.9486 113.159 33.9598 113.205C33.8902 113.34 33.9231 113.477 33.9598 113.617C33.9635 113.633 34.0279 113.659 34.0347 113.686C33.986 113.818 33.9688 113.966 34.0347 114.098C34.0369 114.121 34.0324 114.144 34.0347 114.167C34.0878 114.322 34.1125 114.482 34.1095 114.648C34.1118 114.662 34.1769 114.69 34.1844 114.717C34.1365 114.849 34.1185 114.997 34.1844 115.129C34.1866 115.151 34.1821 115.175 34.1844 115.198C34.2383 115.35 34.263 115.51 34.2592 115.679C34.2615 115.693 34.3274 115.72 34.3341 115.747C34.2862 115.88 34.263 116.028 34.3341 116.16C34.3379 116.182 34.3304 116.206 34.3341 116.228L34.409 116.572C34.4202 116.649 34.4786 116.732 34.4838 116.778C34.4277 116.93 34.4277 117.091 34.4838 117.259C34.4876 117.275 34.552 117.301 34.5587 117.328C34.5041 117.482 34.5041 117.642 34.5587 117.809C34.5624 117.824 34.6268 117.851 34.6336 117.877C34.5647 118.013 34.5969 118.149 34.6336 118.29C34.644 118.331 34.7009 118.384 34.7084 118.427C34.6463 118.581 34.647 118.753 34.7084 118.908C34.7601 118.922 34.7571 118.946 34.7084 118.977C34.7279 119.126 34.7533 119.286 34.7833 119.458C34.8125 119.424 34.8372 119.447 34.8581 119.526C34.8634 119.77 34.9143 119.941 34.933 120.145C34.8701 120.298 34.8694 120.472 34.933 120.626C34.9622 120.592 34.9869 120.615 35.0079 120.694C35.0079 120.717 35.0079 120.741 35.0079 120.763C34.9465 120.916 34.9412 121.091 35.0079 121.244C35.0371 121.211 35.0618 121.233 35.0827 121.313C35.0827 121.336 35.0827 121.359 35.0827 121.382C35.0236 121.489 35.0228 121.617 35.0827 121.725C35.1142 121.778 35.1389 121.847 35.1576 121.931C35.1576 121.954 35.1576 121.977 35.1576 122C35.0962 122.177 35.0887 122.373 35.1576 122.55C35.1868 122.516 35.2115 122.539 35.2325 122.618C35.2325 122.641 35.2325 122.664 35.2325 122.687C35.1696 122.864 35.1651 123.06 35.2325 123.237C35.2617 123.203 35.2864 123.226 35.3073 123.306C35.3073 123.328 35.3073 123.352 35.3073 123.374C35.2452 123.551 35.2399 123.747 35.3073 123.924C35.3365 123.89 35.3612 123.913 35.3822 123.993C35.3822 124.015 35.3822 124.039 35.3822 124.061C35.32 124.261 35.3133 124.48 35.3822 124.68C35.4114 124.646 35.4361 124.669 35.457 124.749C35.457 124.771 35.457 124.795 35.457 124.817C35.3949 125.017 35.3882 125.236 35.457 125.436C35.4862 125.402 35.5109 125.425 35.5319 125.504C35.5319 125.527 35.5319 125.55 35.5319 125.573C35.4683 125.82 35.4668 126.082 35.5319 126.328C35.5529 126.268 35.5783 126.269 35.6068 126.328C35.6068 126.374 35.6068 126.42 35.6068 126.466C35.5454 126.712 35.5356 126.975 35.6068 127.221C35.6352 127.187 35.6607 127.21 35.6816 127.289C35.6816 127.312 35.6816 127.336 35.6816 127.358C35.6217 127.652 35.6083 127.957 35.6816 128.251C35.7101 128.218 35.7348 128.241 35.7565 128.319C35.7565 128.342 35.7565 128.366 35.7565 128.388C35.6951 128.704 35.6869 129.033 35.7565 129.349C35.7894 129.364 35.8149 129.409 35.8314 129.487C35.8314 129.51 35.8321 129.533 35.8314 129.556C35.7707 129.663 35.7782 129.79 35.8314 129.899C35.7984 130.138 35.6434 130.628 35.457 130.792C34.3903 131 33.2441 131.027 32.1654 130.998C31.9662 130.841 31.7933 130.555 31.791 130.311C31.7806 130.284 31.7312 130.263 31.7162 130.174C31.7656 129.881 31.7933 129.571 31.7162 129.281C31.7027 129.159 31.6518 129.043 31.6413 128.938C31.69 128.598 31.7222 128.245 31.6413 127.908C31.6368 127.869 31.5784 127.786 31.5665 127.702C31.6219 127.453 31.6219 127.202 31.5665 126.947C31.5545 126.855 31.5043 126.765 31.4916 126.672C31.5522 126.426 31.5552 126.163 31.4916 125.917C31.4856 125.874 31.4295 125.796 31.4167 125.71C31.4721 125.487 31.4721 125.258 31.4167 125.024C31.41 124.98 31.3561 124.902 31.3419 124.818C31.3973 124.618 31.3973 124.412 31.3419 124.2C31.3344 124.152 31.2797 124.08 31.267 123.993C31.3187 123.792 31.3359 123.576 31.267 123.375C31.2655 123.352 31.2685 123.329 31.267 123.306C31.2146 123.082 31.1899 122.853 31.1922 122.62C31.1862 122.578 31.1323 122.496 31.1173 122.414C31.1727 122.236 31.1727 122.054 31.1173 121.864C31.1098 121.825 31.0514 121.771 31.0424 121.727C31.0978 121.549 31.0978 121.366 31.0424 121.177C31.0334 121.126 30.981 121.058 30.9676 120.971C31.02 120.816 31.0372 120.644 30.9676 120.49C30.9653 120.467 30.9698 120.444 30.9676 120.421C30.9114 120.244 30.8867 120.061 30.8927 119.871C30.8837 119.792 30.8246 119.715 30.8178 119.665L30.8927 119.322C30.8927 119.289 30.8268 119.19 30.8178 119.116L30.743 118.566C30.7273 118.488 30.6786 118.415 30.6681 118.36C30.722 118.23 30.722 118.093 30.6681 117.947C30.6509 117.871 30.6037 117.796 30.5933 117.741C30.6479 117.587 30.6479 117.427 30.5933 117.26C30.585 117.22 30.5296 117.169 30.5184 117.123C30.5715 116.992 30.5715 116.856 30.5184 116.711C30.5012 116.634 30.454 116.559 30.4435 116.504C30.4974 116.375 30.4974 116.237 30.4435 116.092C30.4263 116.016 30.3791 115.941 30.3687 115.886C30.4226 115.756 30.4226 115.619 30.3687 115.474C30.3552 115.417 30.3103 115.354 30.2938 115.268C30.3477 115.138 30.3477 115 30.2938 114.855C30.2841 114.814 30.2302 114.764 30.2189 114.718C30.2721 114.587 30.2721 114.45 30.2189 114.306C30.2017 114.229 30.1546 114.154 30.1441 114.1C30.198 113.97 30.198 113.832 30.1441 113.687C30.1343 113.646 30.0804 113.596 30.0692 113.55C30.1224 113.419 30.1224 113.282 30.0692 113.138C30.052 113.061 30.0048 112.986 29.9944 112.931C30.0483 112.802 30.0483 112.664 29.9944 112.519C29.9846 112.478 29.9307 112.428 29.9195 112.382C29.9726 112.251 29.9726 112.114 29.9195 111.969C29.9023 111.893 29.8551 111.818 29.8446 111.763C29.8963 111.657 29.8963 111.543 29.8446 111.42C29.8259 111.346 29.7803 111.267 29.7698 111.214C29.8214 111.107 29.8214 110.992 29.7698 110.87C29.7518 110.801 29.7001 110.707 29.6949 110.664C29.7488 110.533 29.7653 110.382 29.6949 110.252C29.6919 110.229 29.6979 110.206 29.6949 110.183C29.6403 110.029 29.6148 109.869 29.62 109.702C29.6058 109.623 29.5564 109.552 29.5452 109.496C29.5968 109.389 29.5968 109.275 29.5452 109.152C29.5272 109.083 29.4756 108.989 29.4703 108.946C29.5242 108.815 29.5407 108.664 29.4703 108.534C29.4636 108.489 29.4771 108.441 29.4703 108.396C29.4157 108.266 29.391 108.128 29.3955 107.984C29.3812 107.905 29.3318 107.834 29.3206 107.778C29.3723 107.671 29.3723 107.557 29.3206 107.434C29.3026 107.365 29.251 107.271 29.2457 107.228C29.2996 107.097 29.3161 106.947 29.2457 106.816C29.2427 106.793 29.2487 106.77 29.2457 106.747C29.1911 106.593 29.1656 106.433 29.1709 106.266C29.1566 106.187 29.1072 106.117 29.096 106.06C29.1477 105.954 29.1477 105.84 29.096 105.717C29.0773 105.643 29.0316 105.564 29.0211 105.51C29.075 105.38 29.075 105.243 29.0211 105.098C29.0114 105.057 28.9575 105.007 28.9463 104.961C28.9994 104.83 28.9994 104.693 28.9463 104.549C28.9291 104.472 28.8819 104.397 28.8714 104.342C28.9253 104.213 28.9253 104.075 28.8714 103.93C28.8617 103.889 28.8078 103.839 28.7966 103.793C28.8497 103.662 28.8497 103.525 28.7966 103.38C28.7793 103.306 28.7292 103.223 28.7217 103.174C28.7749 103.066 28.7876 102.938 28.7217 102.831C28.6588 102.446 28.7539 102.321 28.3429 102.043C28.271 101.994 28.1378 102.018 28.1236 102.006C27.7133 101.866 27.214 101.843 26.6271 101.937C26.4534 101.932 26.2775 101.942 26.103 101.937C26.0109 101.924 25.9264 101.909 26.0094 101.863C25.5221 101.836 25.0198 101.83 24.5324 101.869C24.3632 101.863 24.1701 101.887 24.0084 101.869C23.8946 101.786 23.7449 101.74 23.5592 101.731C23.2186 101.593 23.1856 101.52 23.11 101.182C23.1527 101 23.1527 100.817 23.11 100.632C23.0846 100.492 23.0561 100.365 23.0352 100.22C23.0801 100.013 23.0801 99.8067 23.0352 99.6013C23.0135 99.4645 22.979 99.3532 22.9603 99.189C23.0135 98.965 23.0239 98.7266 22.9603 98.5026C22.9603 98.4861 22.86 98.4352 22.8989 98.2854C22.9326 98.1549 23.1841 97.7797 23.3346 97.7474C23.4799 97.7928 23.6386 97.8003 23.7838 97.7474C23.9545 97.7564 24.1237 97.8024 24.3078 97.8161C24.7248 97.8958 25.1598 97.858 25.5797 97.8161C25.7661 97.8292 25.9293 97.8725 26.1038 97.8848C26.5447 97.9632 27.0059 97.9302 27.4505 97.8848C27.902 97.9013 27.7522 97.9803 28.2733 97.8848C28.3766 97.8951 28.4514 97.8491 28.4979 97.7474C28.5121 97.667 28.4949 97.5612 28.4979 97.4726C28.5563 97.3228 28.5563 97.1627 28.4979 96.9916C28.4964 96.984 28.4417 96.9325 28.423 96.8542C28.4926 96.7188 28.4589 96.5821 28.423 96.4419C28.414 96.4034 28.3691 96.3519 28.3481 96.2357C28.402 96.1059 28.402 95.9685 28.3481 95.8235C28.3392 95.785 28.2942 95.7335 28.2733 95.6173C28.3272 95.4875 28.3272 95.3501 28.2733 95.2051C28.2643 95.1666 28.2194 95.1151 28.1984 94.9989C28.2523 94.8691 28.2523 94.7316 28.1984 94.5867C28.1894 94.5482 28.1445 94.4966 28.1236 94.3805C28.1775 94.2506 28.1775 94.1132 28.1236 93.9683C28.1146 93.9298 28.0697 93.8782 28.0487 93.7621C28.1026 93.6322 28.1026 93.4948 28.0487 93.3498C28.0397 93.3114 27.9948 93.2598 27.9738 93.1437C28.0277 93.0138 28.0277 92.8764 27.9738 92.7314C27.9529 92.6414 27.9154 92.581 27.899 92.4566C27.9536 92.3274 27.9536 92.19 27.899 92.0443C27.89 92.0058 27.8451 91.9543 27.8241 91.8382C27.878 91.7083 27.878 91.5709 27.8241 91.4259C27.8039 91.3407 27.7672 91.3022 27.7492 91.1511C27.8039 91.0219 27.8039 90.8845 27.7492 90.7388C27.7403 90.7003 27.6953 90.6488 27.6744 90.5326C27.7283 90.4028 27.7283 90.2654 27.6744 90.1204C27.6534 90.0304 27.6137 89.9726 27.5995 89.8455C27.6676 89.5514 27.6467 89.2477 27.5995 88.9529C27.5786 88.8739 27.3442 88.5235 27.3016 88.5029C26.8344 88.27 26.2632 89.4271 26.0259 89.726C24.9374 91.0981 23.7718 92.528 22.583 93.8432C22.4071 94.0383 21.517 95.0285 21.3912 95.0889C21.341 95.113 21.1075 95.1405 21.0573 95.1302C20.826 95.0855 19.8079 93.9449 19.5945 93.6913C19.5152 93.5773 19.4156 93.4859 19.2951 93.4165C19.2689 93.378 19.2367 93.321 19.2202 93.2791L19.1453 92.8668C19.1663 92.7404 19.721 92.2188 19.852 92.1075C19.8925 92.0587 19.8805 91.9886 19.8932 91.9742C20.013 91.9062 20.1126 91.8148 20.1927 91.6994C21.6907 89.7569 23.1445 88.2796 24.4635 86.2615C24.6417 85.9887 24.8154 85.9571 24.906 85.5874C24.9412 85.404 24.9487 85.2219 24.906 85.0377C24.8581 84.8893 24.7705 84.7601 24.6065 84.6942C24.5414 84.6749 24.5422 84.6516 24.6065 84.6255C21.8771 84.5602 19.1334 84.5602 16.3769 84.6255C16.2804 84.5726 16.0258 84.2269 16.0026 84.1445C15.9914 83.0437 16.0161 81.945 16.0775 80.8484C16.1741 80.6498 16.1464 80.6223 16.3021 80.4361C19.0465 80.4155 21.7895 80.3928 24.5317 80.3674C24.4523 80.3138 24.477 80.2911 24.6065 80.2987C24.6754 80.2595 24.7892 80.2609 24.8386 80.1832C24.8685 80.1358 24.8888 79.9688 24.906 79.8871C24.9374 79.7036 24.9479 79.5215 24.906 79.3374C24.8394 79.1237 24.5481 78.6791 24.4141 78.4503C22.7297 75.5733 20.6224 72.5857 19.2127 69.5713C19.1566 69.4518 19.0697 69.4291 19.0705 69.1735C19.0233 69.0127 18.9904 68.7901 19.1453 68.6925C19.2427 68.0665 19.6342 67.4839 19.9681 66.9067C20.0212 66.8105 20.0459 66.7191 20.0429 66.6318C20.162 66.4422 20.2293 66.2725 20.3274 66.1069C20.5146 65.7915 20.7541 65.2665 21.1232 65.7441C22.4168 68.1249 23.6535 70.5347 25.0168 72.8826C25.5393 73.7834 26.1854 75.0463 26.7888 75.8571C26.9003 76.0069 26.9849 76.1285 27.1503 76.1086C27.2911 76.0701 27.3869 76.0316 27.4498 75.9025C27.5044 75.7781 27.5112 75.6132 27.5995 75.4902C27.6721 70.2557 27.6721 65.105 27.5995 60.0382C27.7657 59.8774 27.6639 59.6658 27.8241 59.4885C28.5712 59.391 29.5235 59.2996 30.2182 59.5572C30.3589 59.7304 30.3732 59.8431 30.4428 60.0382C30.3739 65.1841 30.3739 70.3574 30.4428 75.5589C30.4832 75.6812 30.5805 75.8915 30.6659 75.9877C31.0581 76.4315 31.1899 75.7657 31.4916 75.5795C32.4229 73.8322 33.6102 72.1851 34.558 70.3395L34.7825 69.996C35.1786 69.2546 35.6726 68.5503 36.0267 67.8034C36.1585 67.5251 36.15 67.3041 36.2519 67.0382C36.2855 66.9509 36.4228 66.4807 36.4265 66.4525C36.7327 65.3998 36.9543 64.6089 37.1916 63.6511C37.2448 63.4353 37.2335 63.0767 37.3129 62.8801C37.6243 62.1085 37.792 61.2338 37.9537 60.5646C38.4283 58.6001 39.1642 56.3394 39.4405 54.5948C39.5236 54.0678 39.7594 53.6102 39.8282 53.134C39.8739 52.8186 40.0176 52.607 40.0229 52.5761C40.0438 52.4558 39.954 52.3693 39.9518 52.3074C39.9503 52.2744 40.0962 52.2868 40.0977 52.2401C40.1165 51.7557 40.213 51.2836 40.3635 50.7854C40.4998 50.3326 40.5851 49.7273 40.6278 49.2882C40.6338 49.2284 40.6914 49.1989 40.6929 49.1879C40.7685 49.1102 40.7296 48.9996 40.6929 48.913C40.8007 48.3324 41.0193 47.668 41.1421 47.0585C41.2192 46.9815 41.1795 46.8702 41.1421 46.7837C41.1818 46.5617 41.2349 46.245 41.2918 45.9598C41.4033 45.8932 41.4018 45.7928 41.3667 45.685C41.3981 45.5503 41.479 45.408 41.5164 45.2727C41.5014 45.1339 41.5007 44.9717 41.5912 44.8604C41.6115 44.7532 41.6115 44.6385 41.5912 44.5168C41.6279 44.3808 41.705 44.2413 41.741 44.1046C41.7043 43.9665 41.729 43.829 41.8158 43.6923C41.854 43.5734 41.8847 43.4628 41.8158 43.3487C41.8548 43.1928 41.9244 43.0258 41.9656 42.8678C41.994 42.7489 41.994 42.6348 41.9656 42.5242C41.9745 42.4919 41.9528 42.4507 41.9656 42.4218C41.9805 42.3895 42.0037 42.382 42.0397 42.3868C42.1205 42.3442 42.0741 42.1971 42.0397 42.1119C42.0666 41.9188 42.1886 41.9862 42.1916 41.9346C42.1961 41.8646 42.1055 41.7471 42.1145 41.6309C42.244 41.556 42.2163 41.4097 42.1894 41.2874C42.1984 41.2551 42.1767 41.2139 42.1894 41.185C42.2044 41.1527 42.2276 41.1451 42.2635 41.15C42.3444 41.1074 42.2979 40.9603 42.2635 40.8751C42.2905 40.6813 42.4102 40.7528 42.4162 40.6937C42.4245 40.6181 42.4028 40.5192 42.4132 40.3941C42.4791 40.2636 42.4679 40.1145 42.4132 39.9818C42.4177 39.9489 42.4072 39.9138 42.4132 39.8802C42.4267 39.8472 42.4522 39.8403 42.4873 39.8444C42.5697 39.8018 42.5203 39.6548 42.4873 39.5696C42.5218 39.4005 42.6094 39.2123 42.6371 39.0199C42.7202 38.9436 42.6752 38.7828 42.6371 38.6763C42.6438 38.6323 42.6303 38.5829 42.6371 38.5389C42.7479 38.4722 42.7516 38.3719 42.7119 38.264C42.7441 38.0675 42.7591 37.8909 42.7868 37.7144C42.923 37.5962 42.8961 37.4615 42.8617 37.3021C42.8901 37.1296 42.9792 36.8754 43.0114 36.6837C43.0675 36.6122 43.0675 36.5201 43.0114 36.4088C43.0151 36.3861 43.0076 36.3628 43.0114 36.3401C43.1259 36.2157 43.1514 36.0556 43.0862 35.8591C43.0945 35.8165 43.0773 35.7643 43.0862 35.7217C43.1978 35.655 43.197 35.5547 43.1611 35.4469C43.1791 35.3671 43.23 35.3294 43.236 35.3094C43.2599 35.1693 43.2599 35.0318 43.236 34.8972C43.2449 34.8649 43.2232 34.8236 43.236 34.7948C43.2509 34.7625 43.2741 34.7549 43.3101 34.7597C43.3932 34.6842 43.346 34.5234 43.3101 34.4162C43.3528 34.208 43.4321 34.0328 43.4598 33.7978C43.5234 33.6432 43.501 33.4734 43.4598 33.3168C43.4665 33.2914 43.5294 33.2659 43.5347 33.2481C43.5684 33.1065 43.5684 32.9691 43.5347 32.8358C43.5594 32.7382 43.5968 32.6764 43.6095 32.6297C43.6619 32.5067 43.6619 32.3926 43.6095 32.2861C43.614 32.2531 43.6035 32.2181 43.6095 32.1844C43.623 32.1514 43.6485 32.1446 43.6836 32.1487C43.7675 32.0621 43.7211 31.8649 43.6836 31.7364C43.7009 31.6546 43.7563 31.6086 43.7585 31.599C43.7937 31.4526 43.7937 31.3152 43.7585 31.1867C43.7667 31.1201 43.7495 31.0472 43.7585 30.9806C43.8873 30.9064 43.8678 30.7593 43.8334 30.637C43.8423 30.5841 43.8236 30.5216 43.8334 30.4666C43.8461 30.4322 43.8723 30.4281 43.9075 30.4309C43.9861 30.3436 43.9524 30.1457 43.9075 30.0186C43.9105 29.9506 43.9 29.8798 43.9075 29.8125C44.037 29.7383 44.0123 29.5912 43.9823 29.4689C44.0003 29.3878 44.0535 29.3466 44.0572 29.3315C44.0744 29.1913 44.0744 29.0539 44.0572 28.9192C44.0662 28.8526 44.0482 28.7804 44.0572 28.7131C44.174 28.5722 44.1987 28.3888 44.1321 28.1634C44.1658 27.9091 44.2144 27.9325 44.2069 27.6137C44.2204 27.5518 44.2459 27.5058 44.2818 27.4763C44.3574 27.3196 44.3207 27.154 44.2818 26.9953C44.3028 26.9272 44.3522 26.8743 44.3567 26.8578C44.3963 26.6716 44.3963 26.4882 44.3567 26.3081C44.3784 26.2023 44.424 26.135 44.4315 26.102C44.4457 25.9625 44.4457 25.8251 44.4315 25.6897C44.4525 25.6245 44.5026 25.5674 44.5064 25.5523C44.5498 25.3208 44.5498 25.0919 44.5064 24.8659C44.5206 24.7827 44.5797 24.7367 44.5812 24.7285C44.6187 24.5642 44.6187 24.4041 44.5812 24.2475C44.6022 24.1554 44.6524 24.0592 44.6561 24.0413C44.6816 23.8325 44.6816 23.627 44.6561 23.4229C44.6733 23.3432 44.7295 23.2931 44.731 23.2855C44.7736 23.0533 44.7736 22.8244 44.731 22.5991C44.7497 22.4857 44.8013 22.4177 44.8058 22.3929C44.844 22.2287 44.844 22.0679 44.8058 21.912C44.8118 21.8783 44.7946 21.8391 44.8058 21.8103C44.8208 21.7773 44.844 21.7704 44.8799 21.7745C44.9406 21.5127 44.9406 21.2379 44.8799 20.9507C44.8942 20.8682 44.9533 20.8215 44.9548 20.8132C44.9855 20.649 44.9855 20.4889 44.9548 20.3323C44.969 20.1715 45.0207 20.0162 45.0297 19.92C45.0873 19.775 45.0873 19.5922 45.0297 19.3703C45.0386 19.3181 45.0199 19.2549 45.0297 19.1999C45.0424 19.1655 45.0686 19.1614 45.1038 19.1642C45.1375 18.9099 45.1464 18.611 45.1038 18.3403C45.1105 18.2496 45.0978 18.1568 45.1038 18.0654C45.2415 17.9266 45.2228 17.7198 45.1786 17.5158C45.1824 17.4477 45.1771 17.3783 45.1786 17.3096C45.1996 17.2498 45.2251 17.2505 45.2535 17.3096C45.3186 17.0375 45.3171 16.7579 45.2535 16.4858C45.2535 16.417 45.252 16.3483 45.2535 16.2796C45.2685 16.2185 45.2932 16.1724 45.3284 16.1422C45.395 15.8701 45.3897 15.5904 45.3284 15.3183C45.3299 15.227 45.3269 15.1349 45.3284 15.0435C45.3493 14.9837 45.3748 14.9844 45.4032 15.0435C45.4728 14.8078 45.4594 14.533 45.4032 14.2883C45.4085 14.197 45.3987 14.1049 45.4032 14.0135C45.4174 13.9297 45.4362 13.85 45.4863 13.9276C45.517 13.595 45.5305 13.2453 45.4781 12.9148C45.4781 12.8688 45.4773 12.8234 45.4781 12.7774C45.4968 12.7004 45.5215 12.6317 45.5529 12.5712C45.5829 12.3149 45.6076 12.0634 45.6278 11.8161C45.5522 11.6457 45.6286 11.4375 45.7027 11.2664C45.684 10.9297 45.6585 10.5868 45.6278 10.2364C45.6331 10.0997 45.6233 9.96154 45.6278 9.82412C45.6428 9.74029 45.66 9.66127 45.7094 9.73823C45.7401 9.38299 45.7521 9.01126 45.7019 8.6567C45.7034 8.4966 45.6997 8.33582 45.7019 8.17572C45.7124 8.12281 45.7379 8.09945 45.7768 8.10701C45.8449 7.74489 45.8389 7.37041 45.7768 7.0083C45.7768 6.91691 45.7753 6.82484 45.7768 6.73345C45.7955 6.65649 45.8202 6.58778 45.8516 6.52731C45.9168 5.98037 45.9153 5.42586 45.8516 4.87891C45.8516 4.71881 45.8502 4.55803 45.8516 4.39793C45.8666 4.33746 45.8913 4.29142 45.9265 4.2605C45.9939 3.98909 45.9894 3.70875 45.9265 3.43665C45.9265 3.27655 45.9235 3.11576 45.9265 2.95566C45.9475 2.89588 45.9729 2.89657 46.0014 2.95566C46.0208 2.74128 46.0455 2.51247 46.0762 2.26923C46.0852 1.51889 46.1728 0.720457 46.3757 0.00310263H46.4505C46.488 -0.00582994 46.5239 0.00378975 46.5306 0.0415814C46.7088 1.03447 46.8039 2.09882 46.8249 3.09308L46.8308 3.11095Z" fill="#272727"/>
<path d="M93.7275 64.8274C93.794 64.8487 93.8368 64.8822 93.8753 64.8959C94.49 65.1955 95.1299 65.4691 95.7949 65.7161C96.8278 66.1033 97.8372 66.5364 98.8221 67.0152C99.2374 67.3272 99.1657 68.1153 99.0438 68.5196V68.588C99.029 71.5331 98.9307 74.5412 98.7482 77.6136C98.7445 79.7118 98.712 81.812 98.5266 83.904C98.5118 85.1402 98.4852 86.3559 98.4468 87.551C98.4911 87.8719 98.5354 88.0217 98.896 88.1435C98.9869 88.179 99.1864 88.257 99.2654 88.2803C99.5846 88.3343 99.9053 88.3227 100.225 88.2803C100.325 88.2577 100.495 88.1873 100.595 88.1435L100.824 88.0217C106.323 82.8361 112.199 77.7203 118.635 73.6498C120.188 72.6674 122.021 72.926 123.781 73.2373C124.258 73.2988 124.725 73.3673 125.184 73.4425C125.974 73.513 126.779 73.5958 127.547 73.7846C128.485 73.8003 129.427 73.9234 130.353 74.0582C131.507 74.1465 132.656 74.2525 133.799 74.377L134.193 74.3319C134.315 74.3332 134.439 74.3291 134.562 74.3319C134.626 74.351 134.626 74.3743 134.562 74.4003L134.452 74.4256C134.767 74.4057 135.05 74.4427 135.3 74.5371C135.622 74.4913 135.95 74.5132 136.26 74.6055C136.403 74.559 136.632 74.5426 136.777 74.6055C137.111 74.5891 137.478 74.6171 137.811 74.6739C138.327 74.6548 138.854 74.7156 139.362 74.8107C140.19 74.8922 141.006 75.0105 141.822 75.1651C142.026 75.2691 142.054 75.473 141.911 75.6324C140.595 75.9347 139.273 76.2159 137.959 76.5203C137.931 76.6195 137.821 76.6531 137.738 76.5888C135.398 77.2291 133.06 77.8674 130.723 78.5029C130.189 78.8361 129.516 79.0714 128.877 79.1864C127.967 79.6214 127.032 79.9861 126.071 80.2803C120.284 82.7978 114.914 86.0008 109.826 89.5794C106.815 91.8377 103.897 94.2006 101.039 96.6217C100.781 96.9118 100.485 97.1854 100.153 97.442C99.8425 97.6944 99.6364 97.9646 100.005 98.2622C100.168 98.345 100.432 98.4805 100.595 98.5359C100.978 98.6392 101.384 98.6604 101.777 98.6043C101.869 98.6173 101.91 98.6693 101.925 98.6727C102.058 98.722 102.18 98.722 102.294 98.6727C102.592 98.6891 102.91 98.7657 103.18 98.8095C103.314 98.8554 103.462 98.8786 103.623 98.8779C103.78 98.9279 103.928 98.9279 104.067 98.8779C104.274 98.8957 104.536 98.9826 104.731 99.0148C104.736 99.0695 104.81 99.0695 104.953 99.0148C104.989 99.0209 105.032 99.0038 105.062 99.0148C105.097 99.0284 105.105 99.0496 105.1 99.0825C105.191 99.1071 105.29 99.1297 105.396 99.1509C105.527 99.2001 105.65 99.2001 105.765 99.1509C106.165 99.2131 106.553 99.3452 106.947 99.4245C107.081 99.5059 107.297 99.5292 107.464 99.493C108.324 99.6811 109.138 99.9239 109.975 100.176C110.23 100.215 110.48 100.278 110.713 100.382C110.885 100.429 110.995 100.466 111.156 100.518C111.934 100.729 112.697 100.98 113.445 101.27C113.995 101.449 114.512 101.677 114.996 101.954C115.279 101.99 115.641 102.132 115.882 102.296C116.669 102.655 117.432 103.065 118.171 103.526C118.921 103.993 119.656 104.457 120.304 105.04L120.313 105.168C120.46 105.318 120.526 105.464 120.313 105.578C120.225 105.714 120.029 105.792 119.723 105.813L119.796 105.852C119.753 105.86 119.699 105.906 119.574 105.92C119.458 105.884 119.064 105.835 119.205 105.92C119.209 105.952 119.202 105.975 119.167 105.988C119.13 105.994 119.093 105.985 119.057 105.988C118.817 105.933 118.559 105.926 118.319 105.988C118.312 106.021 118.263 106.044 118.171 106.056C118.123 106.054 118.073 106.056 118.024 106.056C117.912 106.006 117.789 106.006 117.654 106.056C117.471 106.097 117.407 106.11 117.211 106.125C117.047 106.078 116.486 106.061 116.767 106.125C116.705 106.236 116.517 106.188 116.398 106.193C116.241 106.169 115.69 106.124 115.808 106.262C115.71 106.267 115.61 106.257 115.512 106.262C115.299 106.21 115.078 106.21 114.848 106.262C114.84 106.263 114.789 106.316 114.7 106.33C114.481 106.279 114.26 106.279 114.036 106.33C114.025 106.332 113.976 106.384 113.888 106.398C113.683 106.342 113.51 106.366 113.371 106.467C113.274 106.474 113.173 106.465 113.075 106.467C112.939 106.416 112.791 106.416 112.632 106.467C112.57 106.479 112.505 106.522 112.41 106.535C112.284 106.498 111.752 106.47 111.893 106.535C111.858 106.625 111.752 106.6 111.671 106.604C111.233 106.578 110.79 106.6 110.342 106.672C110.047 106.712 109.758 106.79 109.456 106.809C109.041 106.758 108.615 106.755 108.201 106.809C107.971 106.786 107.944 106.754 107.757 106.672C107.578 106.647 107.401 106.592 107.263 106.473C106.261 105.259 105.004 104.457 103.475 103.869C103.329 103.859 103.182 103.814 103.032 103.732C102.906 103.697 102.778 103.691 102.662 103.663C102.455 103.529 102.209 103.438 101.924 103.39C101.263 103.281 100.889 103.189 100.225 103.116C100.178 103.026 100.08 103.003 99.9297 103.048C99.8388 103.034 99.6866 103.09 99.6341 102.979C99.7184 102.907 99.493 102.946 99.4125 102.979C99.3149 102.976 99.2145 102.987 99.1169 102.979C99.0231 102.847 98.7674 102.883 98.5997 102.911C98.5007 102.901 98.4002 102.852 98.3041 102.842C97.7862 102.811 97.2719 102.81 96.7532 102.842C96.6587 102.853 96.5567 102.898 96.4577 102.911C96.3498 102.883 95.7794 102.818 95.9405 102.911C95.9441 102.943 95.939 102.967 95.902 102.979C95.8414 102.985 95.7786 102.974 95.7188 102.979C95.6035 102.941 95.2075 102.894 95.3493 102.979C95.3538 103.011 95.3464 103.034 95.3109 103.046C95.2747 103.052 95.237 103.043 95.2016 103.046C95.087 102.998 94.9644 102.998 94.8321 103.046C94.0755 103.251 93.5029 103.394 92.7647 103.662C92.4366 103.669 92.1448 103.843 91.8788 104.004C91.8308 104.025 91.7798 104.05 91.731 104.072L91.0667 104.483C90.9855 104.549 90.8732 104.668 90.7712 104.757C90.3604 105.034 89.9178 105.443 89.4419 105.987C89.3422 106.104 89.2328 106.216 89.0725 106.261C88.9513 106.352 88.8264 106.447 88.7031 106.535C88.5043 106.601 88.3321 106.715 88.1858 106.877L87.5216 107.424C87.4802 107.55 87.3465 107.638 87.226 107.698C87.2142 107.713 87.2378 107.75 87.226 107.766C87.13 107.84 87.0531 107.932 87.0044 108.04C86.9807 108.063 86.9548 108.085 86.9305 108.108L86.7088 108.382L86.3394 108.929C86.2662 109.104 86.1679 109.263 86.0438 109.408C85.998 109.487 85.9441 109.595 85.896 109.681C85.446 110.53 85.1261 111.396 84.9362 112.28C84.897 112.41 84.8298 112.568 84.7884 112.759C84.7175 112.865 84.699 112.876 84.733 112.79L84.5668 113.648C84.5638 113.671 84.569 113.694 84.5668 113.716C84.5195 113.881 84.4707 114.041 84.419 114.195C84.3761 114.992 84.3761 115.79 84.419 116.588C84.4271 116.648 84.4759 116.756 84.4929 116.862C84.4774 117.209 84.5261 117.551 84.6407 117.887C84.6739 118 84.7441 118.172 84.7884 118.298C84.8542 118.513 84.9525 118.696 85.084 118.845C85.1135 118.914 85.132 118.996 85.1579 119.05L85.3795 119.392C85.4697 119.494 85.5776 119.57 85.6751 119.666C85.7017 119.8 85.9537 120.087 86.1923 120.213C86.3327 120.26 86.4561 120.328 86.5618 120.419C86.6068 120.441 86.6645 120.468 86.7095 120.487C86.9312 120.605 87.1529 120.651 87.3738 120.624C87.4011 120.631 87.4285 120.688 87.4477 120.692C87.9213 120.718 88.3521 120.738 88.7393 120.751L88.7031 120.692C88.6979 120.659 88.706 120.638 88.7407 120.625C88.771 120.612 88.8154 120.632 88.8501 120.625C89.0429 120.653 89.2402 120.63 89.4405 120.556C90.701 120.056 91.7214 119.492 92.7632 118.71C92.849 118.707 92.948 118.661 93.0588 118.573C93.2051 118.451 93.3484 118.344 93.5021 118.231C93.5575 118.136 93.6566 118.067 93.7977 118.026C94.0009 117.825 94.1184 117.727 94.3881 117.547L94.6836 117.273C94.8883 117.131 95.0191 117.03 95.2008 116.863C95.2681 116.863 95.342 116.818 95.4225 116.726C95.7476 116.428 96.2973 116.068 96.6779 115.769C96.7983 115.707 96.8293 115.704 96.771 115.758L97.2682 115.427C97.4382 115.258 97.2712 115.296 97.6377 115.153C97.7448 115.076 97.8756 115.039 98.0071 115.016C98.1438 114.958 98.5369 114.745 98.5709 114.74C98.7423 114.717 99.0386 114.7 99.2625 114.674C99.3814 114.723 99.5115 114.721 99.6319 114.674C99.66 114.68 99.6873 114.737 99.7058 114.743C100.108 114.801 100.501 114.899 100.887 115.016C100.932 115.025 100.991 115.007 101.035 115.016C102.075 115.295 103.133 115.568 104.21 115.836C105.358 115.818 105.444 116.291 104.358 116.657C104.311 116.683 104.257 116.699 104.21 116.725L103.841 116.862C103.24 117.156 102.596 117.527 101.995 117.751C101.849 117.81 101.775 117.855 101.773 117.887C101.726 117.907 101.674 117.934 101.625 117.956C101.523 118.053 101.391 118.113 101.256 118.161C101.179 118.209 101.114 118.25 101.034 118.298L100.739 118.435C100.007 118.885 99.3113 119.425 98.5975 119.871L98.228 120.144L97.9325 120.35C97.7404 120.507 97.6362 120.612 97.4153 120.76L97.0458 121.034C96.966 121.116 96.9483 121.123 96.898 121.171C96.765 121.236 96.6498 121.318 96.6764 121.376C95.7838 122.125 94.8233 122.812 93.944 123.564L93.6484 123.769C93.6248 123.793 93.5982 123.814 93.5745 123.837C93.4415 123.904 93.3263 123.985 93.3529 124.042C93.3056 124.083 93.2701 124.128 93.2051 124.179C93.1223 124.174 92.9923 124.215 92.9834 124.316C92.2638 124.864 91.3468 125.522 90.5466 125.957L90.4276 125.961C88.7636 126.749 86.8551 127.428 85.0086 126.778C84.832 126.807 84.5808 126.689 84.4183 126.572C84.3961 126.566 84.3673 126.578 84.3444 126.572C84.2276 126.484 84.1293 126.392 84.0488 126.299C83.5634 126.116 83.1178 125.672 82.7934 125.273C82.6922 125.223 82.6161 125.098 82.5718 125C82.4957 124.894 82.3974 124.803 82.2762 124.726C82.039 124.383 81.8262 123.99 81.612 123.632C81.5322 123.444 81.4583 123.261 81.3903 123.085C81.3474 123.014 81.2869 122.951 81.2425 122.879L81.0947 122.469C80.9854 122.397 80.947 122.251 80.947 122.127C80.5805 121.251 80.2022 120.241 80.061 119.323L79.9133 118.503C79.8911 118.366 79.7714 118.13 79.7655 118.093C79.8187 117.932 79.8357 117.441 79.7655 117.819C79.6502 117.77 79.7012 117.634 79.6916 117.545C79.7056 117.23 79.6909 116.914 79.6458 116.597C79.7138 116.237 79.7042 116.233 79.6177 116.588C79.4951 116.529 79.5519 116.356 79.5438 116.246C79.5741 115.9 79.5741 115.558 79.5438 115.221C79.5601 115.02 79.5357 114.884 79.4699 114.81C79.4699 114.764 79.4699 114.719 79.4699 114.673C79.5423 114.456 79.5512 114.218 79.5438 113.99C79.5327 113.906 79.4795 113.819 79.4699 113.648C79.4906 113.588 79.5157 113.589 79.5438 113.648C79.614 113.507 79.5963 113.135 79.5438 112.896C79.5453 112.746 79.4891 112.511 79.6177 112.417L79.6679 112.425C79.7367 111.502 79.917 110.542 80.2088 109.545C80.2132 109.523 80.2044 109.499 80.2088 109.477C80.2768 109.372 80.3389 109.256 80.2827 109.135C80.3093 109.016 80.3167 108.98 80.3566 108.861C80.4866 108.803 80.4985 108.589 80.5044 108.451C80.5228 108.423 80.5635 108.404 80.5783 108.382L80.726 108.04C80.7948 107.947 80.8199 107.856 80.7999 107.767C80.8162 107.739 80.859 107.721 80.8738 107.698L81.0216 107.425L81.1694 107.151C81.1967 107.048 81.2462 106.957 81.3171 106.877C81.4376 106.636 81.5854 106.409 81.7605 106.194C81.8174 106.1 81.8617 105.994 81.9083 105.92L82.4986 105.305C82.6523 105.119 82.8245 104.96 83.0158 104.826C83.0971 104.687 83.2102 104.515 83.3853 104.484C83.4163 104.445 83.4289 104.386 83.4592 104.347C83.7111 104.144 83.983 103.821 84.0495 103.526C84.0976 103.467 84.139 103.394 84.1973 103.321C84.286 103.343 84.3599 103.275 84.419 103.116C84.4404 103.091 84.4714 103.072 84.4929 103.048C84.6355 102.968 84.7581 102.854 84.8623 102.706C85.18 102.41 85.4756 102.114 85.7482 101.817C85.7933 101.78 85.8354 101.729 85.896 101.68L86.2655 101.475C86.2773 101.459 86.2536 101.422 86.2655 101.406L86.6349 101.201C87.0398 100.861 87.5888 100.549 88.0381 100.313C88.123 100.327 88.3875 100.254 88.4814 100.107C88.5309 100.085 88.5774 100.061 88.6292 100.039C88.825 100.02 88.9484 99.9746 88.9986 99.902C89.0053 99.8596 89.1641 99.7871 89.2203 99.7652C89.3392 99.781 89.4626 99.7584 89.5897 99.6968C89.8631 99.5771 90.0367 99.5101 90.3279 99.4232L90.9182 99.2863C91.086 99.2063 91.1598 99.116 91.2877 99.0127C91.5729 98.8034 91.4569 98.4538 91.1399 98.3293C91.0113 98.2814 90.899 98.252 90.7705 98.1924C90.5953 98.0447 90.3796 97.7389 90.5488 97.3722C90.5673 96.569 90.5916 95.7488 90.6227 94.9107C90.619 92.9275 90.6212 90.9408 90.7705 88.9624C90.749 87.8076 90.7971 86.6172 90.9182 85.4754C90.8636 85.1819 90.8562 84.8796 90.9182 84.5868C90.9862 83.2917 91.0328 81.8489 90.9633 80.5211C90.8606 80.4417 90.7963 80.3617 90.7705 80.2796C90.6109 80.1544 90.4387 80.086 90.2532 80.0743C90.2252 80.062 90.2023 80.0148 90.1793 80.0059C90.0064 79.9608 89.835 79.9642 89.6621 80.0059C89.6407 80.0134 89.6163 80.0627 89.5882 80.0743C89.3998 80.0586 89.2277 80.1263 89.071 80.2796L88.6277 80.8953L88.1844 81.511C88.0085 81.7983 87.812 82.0719 87.594 82.3312C87.5829 82.3483 87.6051 82.3825 87.594 82.3996C87.3361 82.6062 87.1603 82.8751 87.0036 83.1515C86.9541 83.2206 86.9053 83.2876 86.8558 83.3567C86.6977 83.5531 86.5499 83.7583 86.4125 83.9724C86.2862 84.1838 86.2721 84.2009 86.117 84.3829L85.5266 85.2031C85.4704 85.2893 85.418 85.3502 85.3788 85.4084C85.0374 85.8886 84.6924 86.3675 84.3451 86.8443C84.2971 86.9127 84.2439 86.9818 84.1973 87.0496C83.9675 87.46 83.6949 87.8493 83.3853 88.2119C83.0934 88.6244 82.7883 89.0308 82.4994 89.4426L80.8746 91.7672C80.78 91.9075 80.6691 92.0422 80.579 92.1777C80.4334 92.4418 80.2605 92.6928 80.0618 92.9295L79.7662 93.34C79.7123 93.4351 79.7071 93.5747 79.6162 93.6451C79.546 93.6999 79.2172 93.7902 79.1012 93.8182L78.7318 93.8866C78.4643 93.8586 77.9729 93.587 77.6981 93.4762C77.6774 93.4036 77.5791 93.3578 77.4025 93.3393C76.6962 93.052 75.7711 92.7565 75.1873 92.3138C74.9442 92.1148 74.9309 91.5989 75.1873 91.4252C75.211 91.3793 75.2354 91.3328 75.2612 91.2883C75.4386 90.9244 75.6602 90.5823 75.9255 90.2629C75.992 90.1459 76.0703 89.9263 76.1472 89.784C76.3636 89.5261 76.5609 89.2524 76.7375 88.9637C76.8868 88.6942 77.0264 88.4096 77.1809 88.1435C77.3907 87.9451 77.5629 87.7173 77.6981 87.46C77.8983 87.2008 78.0705 86.9278 78.2153 86.6398C78.4599 86.2642 78.6439 85.8558 78.8796 85.4775C80.0995 83.7008 81.2809 81.8777 82.424 80.0073C82.4506 79.8328 82.5526 79.6262 82.7196 79.5284C82.8769 79.2548 82.9855 79.1029 83.1629 78.845C83.4599 78.2621 83.8042 77.7155 84.1966 77.2038C84.2454 77.1183 84.2808 76.9773 84.3444 76.8617C84.6724 76.3958 84.9924 75.917 85.3042 75.4258C85.3426 75.3553 85.3507 75.2698 85.3781 75.2205C85.6411 74.8634 85.8872 74.4988 86.1162 74.1266C86.2263 73.8017 86.479 73.4377 86.7066 73.1695C86.7332 73.1196 86.742 73.0368 86.7805 72.9643C87.0191 72.6441 87.2408 72.3247 87.4447 72.0072C87.5873 71.6789 87.7839 71.3594 88.0351 71.0502C88.222 70.704 88.4193 70.3852 88.6255 70.0931C88.7134 69.7962 88.9099 69.4931 89.1427 69.2728C89.3836 68.7481 89.668 68.1625 90.1025 67.7685C90.4003 67.0727 90.7948 66.379 91.284 65.7859C91.6616 64.666 92.5696 64.1214 93.7208 64.8288L93.7275 64.8274Z" fill="#272727"/>
<path d="M12.4717 97.3072C12.7173 97.3564 12.9772 97.3715 13.2221 97.3072C13.3347 97.2333 13.4714 97.2675 13.5976 97.3072C13.648 97.3072 13.6975 97.3058 13.7479 97.3072C14.0453 97.3694 14.3503 97.3537 14.6485 97.3072C14.7041 97.312 14.8513 97.3592 14.9489 97.3756C15.1074 97.4242 15.2577 97.4242 15.3996 97.3756C15.5138 97.3927 15.5837 97.4659 15.6791 97.4844C16.8516 97.7067 17.8754 98.0207 18.8527 98.8799L19.2282 99.1536C19.253 99.1768 19.2801 99.1973 19.3033 99.222L19.4536 99.4272C20.2626 100.124 20.9814 101.592 21.2548 102.572C21.2323 102.749 21.2571 102.932 21.3299 103.119C21.3359 103.136 21.396 103.16 21.405 103.188C21.3397 103.303 21.3682 103.409 21.405 103.53C21.4441 103.675 21.5455 103.945 21.5553 104.077C21.5463 104.266 21.505 104.455 21.405 104.624C21.2158 104.859 21.0445 104.871 20.7298 104.898C20.1183 104.84 19.5009 104.847 18.8887 104.901C18.8271 104.895 18.7347 104.835 18.7407 104.829C18.7528 104.817 18.9991 104.898 18.8534 104.966C18.7039 104.971 18.5529 104.966 18.4027 104.966C18.284 104.913 18.1466 104.916 18.0271 104.966C17.7124 104.942 17.8626 104.898 17.7455 104.83C17.5329 104.707 17.4856 104.753 17.3511 104.487C17.3308 104.197 17.3053 104.082 17.276 104.145C17.2399 104.15 17.2167 104.143 17.2016 104.111C17.1874 104.083 17.2114 104.04 17.2016 104.009C17.2264 103.852 17.2016 103.439 17.1265 103.598C17.0852 103.44 17.0281 103.276 16.9763 103.119C16.9342 102.967 16.8591 102.853 16.7509 102.777C16.2597 101.911 15.7346 101.633 14.7244 101.341C14.5989 101.319 14.4742 101.319 14.3488 101.341C14.2804 101.321 14.2068 101.274 14.1985 101.273C13.7231 101.223 13.2476 101.23 12.7721 101.273C12.7639 101.274 12.7068 101.324 12.6219 101.341C12.504 101.294 12.3793 101.294 12.2463 101.341C11.2518 101.625 10.4781 101.919 9.91927 102.777C9.82537 102.846 9.78631 102.945 9.76904 103.051C9.75326 103.084 9.71871 103.193 9.69392 103.256C9.59102 103.632 9.59102 103.792 9.69392 103.735C9.69392 103.826 9.68942 103.918 9.69392 104.009C9.68716 104.163 9.66688 104.195 9.63383 104.106L9.76904 104.556C10.0883 105.163 10.4255 105.437 11.0452 105.787L11.4208 105.992C11.4809 106.014 11.5402 106.012 11.6462 106.06C11.7213 106.146 11.8309 106.18 11.9466 106.197C11.9984 106.219 12.0473 106.245 12.0968 106.265C12.2313 106.287 12.3635 106.325 12.4724 106.402C12.5956 106.449 12.7248 106.497 12.848 106.539C13.0568 106.581 13.2656 106.643 13.4482 106.744C13.5203 106.764 13.6006 106.796 13.6735 106.813L14.1242 106.95C14.3022 106.986 14.4231 107.042 14.5749 107.086L14.9504 107.223C15.13 107.266 15.2381 107.306 15.4011 107.36C15.5348 107.38 15.6708 107.415 15.7767 107.497C15.9074 107.546 16.0051 107.569 16.1523 107.634L16.5279 107.77C16.6443 107.822 16.7014 107.84 16.8283 107.907C16.98 107.982 17.1303 108.028 17.279 108.044C17.309 108.062 17.3308 108.1 17.3541 108.112C17.4946 108.156 17.629 108.217 17.7297 108.318C18.7933 108.848 19.3724 109.195 20.207 110.027L20.4323 110.301C20.569 110.43 20.6216 110.507 20.7328 110.643L20.9581 110.985C21.1008 111.148 21.2188 111.281 21.3337 111.464C21.3202 111.633 21.4471 111.804 21.559 111.943C21.6221 112.07 21.6559 112.166 21.7093 112.285C21.7979 112.383 21.8385 112.504 21.8595 112.627C21.9849 112.938 22.0585 113.118 22.16 113.447C22.2629 113.615 22.2892 113.806 22.3102 113.994C22.362 114.177 22.4844 114.412 22.5355 114.61C22.5723 115.146 22.6474 115.692 22.7609 116.251C22.7631 116.261 22.821 116.305 22.836 116.388C22.7804 116.564 22.7804 116.746 22.836 116.935C22.8503 117.012 22.9043 117.093 22.9111 117.14C22.8773 117.26 22.8285 117.739 22.9111 117.619C23.0493 117.799 22.9847 118.135 22.9862 118.371C22.9396 119.004 22.8976 119.667 22.9862 120.285C22.9862 120.308 22.9862 120.331 22.9862 120.354C22.9757 120.417 22.9509 120.462 22.9111 120.491C22.8593 120.739 22.8375 120.994 22.9111 121.242C22.9088 121.372 22.9622 121.578 22.836 121.653C22.7549 121.568 22.7962 121.888 22.836 121.995C22.8352 122.017 22.8382 122.041 22.836 122.063C22.815 122.123 22.7894 122.122 22.7609 122.063C22.6918 122.381 22.667 122.699 22.6858 123.02C22.6655 123.123 22.6212 123.182 22.6106 123.226C22.5273 123.302 22.4965 123.593 22.5355 123.773C22.4995 123.877 22.4101 123.978 22.3853 124.046C22.2711 124.339 22.196 124.635 22.16 124.935C22.1479 124.962 22.0931 124.984 22.0848 125.003C21.9932 125.311 21.8828 125.614 21.7093 125.892C21.6477 126.049 21.6477 126.073 21.559 126.234L21.3337 126.713C21.2849 126.795 21.2428 126.887 21.1835 126.987C21.0993 127.231 20.9852 127.47 20.8079 127.67C20.7831 127.715 20.7561 127.762 20.7328 127.807C20.5773 128.072 20.4023 128.322 20.207 128.559C20.0665 128.759 20.0124 128.851 19.8314 129.038C19.6226 129.319 19.38 129.584 19.081 129.789L18.7805 130.131C18.761 130.141 18.7235 130.121 18.7054 130.131C18.2728 130.481 17.792 130.778 17.279 131.02C17.2535 131.036 17.2324 131.07 17.2039 131.089C16.6045 131.353 15.9547 131.515 15.311 131.661C15.2915 131.793 15.2419 131.789 15.1668 131.664C15.0503 131.788 14.979 131.802 14.9512 131.704C14.9099 131.779 14.8596 131.87 14.801 131.977C13.2979 131.996 11.7205 132.019 10.222 131.977C10.077 131.827 9.98011 131.765 9.73448 131.741L9.69768 131.653C8.52514 131.369 7.39016 130.921 6.39338 130.268C6.36634 130.248 6.34531 130.221 6.31827 130.2C5.73087 129.835 5.19155 129.404 4.74161 128.901C4.68828 128.854 4.64246 128.81 4.59138 128.764C3.53076 127.642 2.66394 126.383 2.03899 125.003C2.0142 124.958 1.98866 124.913 1.96387 124.867C1.61309 124.084 1.31263 123.286 1.06325 122.474C1.03846 122.405 1.01292 122.337 0.988133 122.268C0.710209 121.365 0.49463 120.45 0.340645 119.523C0.196425 119.479 0.0867574 119.392 0.0123939 119.26C-0.00413131 118.627 -0.00413131 117.979 0.0123939 117.346C0.128822 117.24 0.254263 117.149 0.387967 117.072C0.451815 116.977 0.526929 116.886 0.613311 116.798C0.698191 116.75 0.747766 116.67 0.763541 116.662C1.48464 116.464 2.27635 116.331 3.01548 116.32C3.08533 116.256 3.28739 116.27 3.39105 116.32L3.39856 116.25L4.51702 116.115C4.75513 116.09 5.02855 116.002 5.1923 115.978C5.54985 115.965 5.89988 115.987 6.24316 116.047C6.55413 116.263 6.70511 116.588 6.69459 117.023C6.65854 117.312 6.68333 117.511 6.76821 117.619C6.76821 117.665 6.76821 117.71 6.76821 117.756C6.66004 117.82 6.66004 118.002 6.76821 118.303C6.78924 118.244 6.81478 118.245 6.84332 118.303C6.84633 118.415 6.8313 118.537 6.84332 118.645C6.71262 118.723 6.83731 119.08 6.92745 119.336C7.34884 120.536 8.00009 121.686 8.94503 122.611L9.47083 123.022C9.62932 123.128 9.83664 123.272 9.99664 123.364C10.6314 123.701 11.3472 123.889 12.0232 124.047C12.4604 123.998 12.9351 124.004 13.3745 124.047L13.4331 123.964C14.0145 123.903 14.5786 123.737 15.1007 123.501C15.1285 123.482 15.1487 123.451 15.1758 123.432L15.7016 123.158C15.7136 123.144 15.6896 123.104 15.7016 123.09C16.0704 122.916 16.3468 122.629 16.6022 122.338C16.612 122.32 16.5917 122.287 16.6022 122.27C16.8719 122.042 17.0552 121.753 17.2024 121.45C17.2895 121.318 17.3541 121.178 17.4277 121.039C17.6974 120.44 17.8476 119.847 17.8784 119.261C17.8867 119.228 17.8656 119.187 17.8784 119.159C17.8934 119.127 17.9167 119.12 17.9528 119.124C17.9588 118.943 18.0091 118.715 18.103 118.441C18.0602 118.157 18.0579 117.836 18.103 117.552C17.9813 117.365 17.9678 117.103 18.0159 116.899L17.9528 116.937C17.9167 116.941 17.8934 116.933 17.8784 116.902C17.8641 116.874 17.8882 116.832 17.8784 116.8C17.8912 116.543 17.8529 116.237 17.6531 116.048C17.593 115.864 17.581 115.818 17.5028 115.638C17.4337 115.477 17.3338 115.341 17.2024 115.227C16.9305 114.88 16.6052 114.583 16.2266 114.338C16.0914 114.312 15.9397 114.23 15.8511 114.133C15.5003 114.035 15.1367 113.878 14.8002 113.723C14.7777 113.716 14.7484 113.729 14.7251 113.723C14.5606 113.6 14.3608 113.509 14.1249 113.449C14.1017 113.443 14.0731 113.455 14.0498 113.449C13.8598 113.327 13.6352 113.236 13.3745 113.175C13.3513 113.169 13.3227 113.182 13.2994 113.175C12.9779 113.01 12.6279 112.873 12.2486 112.765C12.1637 112.744 12.0721 112.707 12.0232 112.697C11.8279 112.628 11.6281 112.56 11.4231 112.491C11.399 112.487 11.372 112.496 11.3479 112.491C11.1895 112.411 11.0144 112.342 10.8221 112.286C10.7283 112.265 10.6081 112.242 10.5217 112.218C10.3008 112.075 10.0507 111.961 9.77129 111.876C9.74876 111.87 9.71871 111.883 9.69618 111.876C9.47384 111.737 9.2237 111.623 8.94578 111.534C8.924 111.526 8.8932 111.541 8.87067 111.534C8.78053 111.403 8.65809 111.359 8.49509 111.328C8.41247 111.291 8.26073 111.226 8.19463 111.192C8.08497 111.068 7.93474 110.977 7.74395 110.918C7.69437 110.896 7.64404 110.872 7.59372 110.85C7.50508 110.728 7.37964 110.637 7.21814 110.576C7.11674 110.453 6.9913 110.362 6.84257 110.302C6.69985 110.169 6.51883 110.018 6.39188 109.892C6.24316 109.633 6.03809 109.396 5.79172 109.208C5.73388 109.13 5.62571 108.959 5.56637 108.866C5.50928 108.688 5.42816 108.508 5.26591 108.387C5.2584 108.367 5.27342 108.34 5.26591 108.319C4.95869 107.705 4.74687 107.062 4.66349 106.4C4.66274 106.392 4.73035 106.524 4.58988 106.405C4.58988 106.359 4.58988 106.314 4.58988 106.268C4.61317 105.743 4.61317 105.219 4.58988 104.695C4.59289 104.673 4.58688 104.65 4.58988 104.627C4.75288 104.111 4.87757 103.587 4.96545 103.054C4.97897 103.028 5.0278 103.008 5.04057 102.986C5.11118 102.866 5.13596 102.752 5.11568 102.644C5.13521 102.581 5.17427 102.546 5.1908 102.507C5.23436 102.445 5.28394 102.376 5.34103 102.302C5.54008 101.812 5.83453 101.294 6.09142 100.866C6.19809 100.777 6.29799 100.686 6.39188 100.592C7.57794 99.0167 9.72171 97.6821 11.7498 97.5199C11.8076 97.5151 11.7348 97.4077 11.9466 97.379C12.063 97.4269 12.1877 97.4269 12.3222 97.379C12.3395 97.3749 12.38 97.3256 12.4724 97.3106L12.4717 97.3072Z" fill="#272727"/>
<path d="M53.5956 99.2494C53.7433 99.2591 53.8823 99.3066 54.0299 99.3184C54.4107 99.3935 54.8046 99.3639 55.1875 99.3184C55.3671 99.3315 55.5249 99.3742 55.6943 99.3873C56.0968 99.468 56.5181 99.4287 56.9243 99.3873C57.072 99.3983 57.211 99.4445 57.3586 99.4562C57.7612 99.5362 58.1825 99.4976 58.5886 99.4562C58.758 99.4687 58.9159 99.5121 59.0954 99.5252C59.5269 99.5865 59.9612 99.5865 60.3978 99.5252C60.5281 99.5348 60.6721 99.5817 60.8321 99.5941C61.2354 99.6741 61.656 99.6355 62.0621 99.5941C62.233 99.6065 62.3879 99.6527 62.5689 99.6631C63.2219 99.6651 63.8734 99.6879 64.5221 99.732C65.4654 99.701 66.3812 99.6782 67.2716 99.6631C67.3737 99.6803 67.4229 99.7637 67.4888 99.8009C67.6184 99.8754 67.7154 99.9671 67.7784 100.077C67.8189 100.116 67.9015 100.122 67.9232 100.215C67.8776 100.873 67.8776 101.516 67.9232 102.144C67.9963 102.406 67.9673 102.704 67.9232 102.97C67.9869 103.013 68.0108 103.105 67.9956 103.246C67.9768 103.306 67.9282 103.48 67.9058 103.504C67.8522 103.563 67.7161 103.569 67.6336 103.591L66.2588 103.66C66.0438 103.649 65.8983 103.606 65.7521 103.591C65.2489 103.528 64.7422 103.528 64.2325 103.591C64.0175 103.58 63.872 103.537 63.7257 103.522C63.2364 103.486 62.7448 103.468 62.2511 103.468L62.2786 103.522C62.2721 103.566 62.0469 103.703 61.989 103.797C61.9202 104.044 61.9202 104.135 61.989 104.073C62.023 104.069 62.0476 104.076 62.0607 104.109C62.0672 104.143 62.0571 104.178 62.0607 104.211C62.0274 104.305 61.9658 104.766 62.0607 104.625C62.0947 104.621 62.1193 104.627 62.1323 104.661C62.1389 104.694 62.1287 104.729 62.1323 104.763C62.099 104.856 62.0375 105.318 62.1323 105.176C62.1664 105.172 62.191 105.179 62.204 105.212C62.2105 105.246 62.2004 105.281 62.204 105.314C62.1714 105.407 62.1077 105.873 62.204 105.728C62.238 105.724 62.2634 105.729 62.2757 105.764C62.2829 105.82 62.2713 105.879 62.2757 105.935C62.2409 106.028 62.1816 106.489 62.2757 106.348C62.3097 106.344 62.3343 106.351 62.3474 106.384C62.3539 106.418 62.3437 106.453 62.3474 106.486C62.3141 106.58 62.2525 107.041 62.3474 106.9C62.3814 106.896 62.406 106.902 62.419 106.936C62.4255 106.969 62.4154 107.004 62.419 107.038C62.3872 107.139 62.3227 107.665 62.419 107.52C62.4531 107.516 62.4777 107.523 62.4907 107.556C62.4972 107.59 62.4871 107.625 62.4907 107.658C62.4588 107.759 62.3944 108.285 62.4907 108.141C62.5247 108.136 62.5493 108.143 62.5624 108.176C62.5689 108.21 62.5587 108.245 62.5624 108.278C62.5312 108.379 62.4646 108.911 62.5624 108.761C62.5964 108.758 62.6217 108.762 62.634 108.797C62.6406 108.853 62.6304 108.912 62.634 108.968C62.6007 109.069 62.5385 109.596 62.634 109.45C62.6681 109.446 62.6927 109.453 62.7057 109.486C62.7122 109.52 62.7021 109.555 62.7057 109.588C62.6746 109.689 62.608 110.221 62.7057 110.071C62.7397 110.067 62.7651 110.072 62.7774 110.107C62.7839 110.163 62.7738 110.222 62.7774 110.278C62.7448 110.378 62.6811 110.911 62.7774 110.76C62.8114 110.757 62.8367 110.762 62.849 110.796C62.8556 110.853 62.8454 110.911 62.849 110.967C62.8165 111.067 62.7528 111.601 62.849 111.45C62.8831 111.446 62.9084 111.451 62.9207 111.486C62.9272 111.542 62.9171 111.601 62.9207 111.657C62.8881 111.756 62.8244 112.29 62.9207 112.139C62.9547 112.136 62.9801 112.14 62.9924 112.175C62.9989 112.231 62.9888 112.29 62.9924 112.346C62.9613 112.458 62.8939 113.047 62.9924 112.897C63.0264 112.894 63.0518 112.899 63.0641 112.933C63.0706 112.99 63.0604 113.048 63.0641 113.104C63.0329 113.216 62.9656 113.805 63.0641 113.656C63.0981 113.652 63.1234 113.657 63.1357 113.692C63.1422 113.748 63.1321 113.807 63.1357 113.863C63.1053 113.987 63.0373 114.625 63.1357 114.483C63.1698 114.48 63.1951 114.484 63.2074 114.519C63.2139 114.575 63.2038 114.634 63.2074 114.69C63.1763 114.802 63.1089 115.391 63.2074 115.241C63.2414 115.238 63.2668 115.243 63.2791 115.277C63.2856 115.334 63.2755 115.392 63.2791 115.448C63.2241 115.671 63.2241 115.9 63.2791 116.137C63.282 116.154 63.3363 116.225 63.3515 116.344C63.324 116.469 63.2501 117.106 63.3515 116.964C63.3855 116.961 63.4108 116.966 63.4231 117C63.4297 117.057 63.4195 117.115 63.4231 117.171C63.3594 117.417 63.3652 117.682 63.4231 117.929C63.4253 117.942 63.4811 118.018 63.4955 118.135C63.4369 118.382 63.4347 118.647 63.4955 118.893C63.4977 118.906 63.5534 118.982 63.5679 119.1C63.5296 119.326 63.4854 119.734 63.5679 119.858C63.6418 119.86 63.6367 120.078 63.6403 120.133C63.5802 120.427 63.5744 120.737 63.6403 121.029C63.6418 121.04 63.6982 121.119 63.7127 121.236C63.6686 121.512 63.6403 121.971 63.7127 122.131C63.7866 122.133 63.7815 122.352 63.7851 122.407C63.7323 122.748 63.7105 123.101 63.7851 123.44C63.7887 123.474 63.8445 123.58 63.8575 123.716C63.8126 124.082 63.7757 124.456 63.8575 124.819C63.8655 124.89 63.9176 125.005 63.9299 125.163C63.8647 125.578 63.8647 125.992 63.9299 126.403C63.9408 126.504 63.9907 126.636 64.0023 126.817C63.9531 127.251 63.9618 127.691 64.0023 128.126C63.9958 128.179 63.8322 128.534 63.7851 128.609C63.6591 128.761 63.4745 128.843 63.2313 128.858L61.1087 129.022C60.843 128.869 60.696 128 60.6743 127.713C60.7272 127.396 60.7474 127.064 60.6743 126.749C60.6656 126.663 60.6142 126.55 60.6019 126.404C60.654 126.087 60.6758 125.755 60.6019 125.44C60.5976 125.402 60.5433 125.302 60.5295 125.164C60.5882 124.894 60.594 124.606 60.5295 124.337C60.5274 124.324 60.4716 124.248 60.4571 124.131C60.5129 123.86 60.5237 123.573 60.4571 123.304C60.455 123.291 60.3999 123.214 60.3847 123.097C60.4383 122.874 60.4383 122.643 60.3847 122.408C60.3753 122.34 60.3261 122.252 60.3123 122.133C60.3666 121.909 60.3666 121.679 60.3123 121.444C60.3109 121.436 60.2537 121.389 60.2399 121.306C60.2928 121.079 60.2928 120.85 60.2399 120.617C60.2385 120.61 60.182 120.563 60.1676 120.479C60.1929 120.354 60.2704 119.718 60.1676 119.859C60.1335 119.862 60.1082 119.858 60.0959 119.823C60.0894 119.767 60.0995 119.708 60.0959 119.652C60.1509 119.453 60.1509 119.246 60.0959 119.032C60.0944 119.024 60.038 118.977 60.0235 118.894C60.0503 118.781 60.1248 118.194 60.0235 118.342C59.9895 118.346 59.9641 118.341 59.9518 118.306C59.9453 118.25 59.9554 118.191 59.9518 118.135C60.0068 117.96 60.0068 117.776 59.9518 117.584C59.9504 117.576 59.8939 117.529 59.8794 117.446C59.933 117.268 59.933 117.085 59.8794 116.895C59.878 116.887 59.8215 116.839 59.807 116.757C59.8606 116.579 59.8606 116.395 59.807 116.205C59.8056 116.198 59.7491 116.15 59.7346 116.067C59.7875 115.914 59.7875 115.752 59.7346 115.585C59.7325 115.576 59.6774 115.53 59.6622 115.447C59.6919 115.345 59.7607 114.819 59.6622 114.964C59.6282 114.968 59.6036 114.962 59.5906 114.928C59.5841 114.895 59.5942 114.859 59.5906 114.826C59.6217 114.726 59.6883 114.194 59.5906 114.344C59.5565 114.347 59.5312 114.342 59.5189 114.308C59.5117 114.251 59.5232 114.193 59.5189 114.137C59.5725 114.008 59.5725 113.87 59.5189 113.723C59.5167 113.713 59.4646 113.665 59.4465 113.585C59.4762 113.491 59.545 113.027 59.4465 113.172C59.4125 113.175 59.3871 113.17 59.3748 113.136C59.3676 113.079 59.3792 113.021 59.3748 112.965C59.4284 112.836 59.4284 112.698 59.3748 112.551C59.3727 112.541 59.3205 112.493 59.3024 112.413C59.3698 112.278 59.3372 112.14 59.3024 112C59.3003 111.99 59.2481 111.941 59.23 111.862C59.2605 111.768 59.3271 111.308 59.23 111.448C59.196 111.452 59.1714 111.446 59.1584 111.412C59.1519 111.379 59.162 111.344 59.1584 111.31C59.1917 111.217 59.2532 110.755 59.1584 110.897C59.1243 110.901 59.0997 110.894 59.0867 110.861C59.0802 110.827 59.0903 110.792 59.0867 110.759C59.1396 110.629 59.1396 110.491 59.0867 110.345C59.0845 110.336 59.0331 110.286 59.0143 110.207C59.0512 110.098 59.1055 109.732 59.0143 109.863C58.9803 109.867 58.9557 109.861 58.9426 109.827C58.9361 109.793 58.9463 109.758 58.9426 109.725C58.9759 109.631 59.0375 109.17 58.9426 109.311C58.9086 109.315 58.884 109.308 58.871 109.275C58.8645 109.242 58.8746 109.206 58.871 109.173C58.9101 109.065 58.9607 108.697 58.871 108.829C58.8369 108.833 58.8123 108.827 58.7993 108.793C58.7928 108.759 58.8029 108.724 58.7993 108.691C58.8521 108.561 58.8521 108.423 58.7993 108.277C58.7957 108.261 58.7334 108.235 58.7269 108.208C58.7935 108.072 58.7624 107.935 58.7269 107.795C58.7247 107.785 58.6733 107.735 58.6545 107.657C58.6914 107.548 58.7457 107.181 58.6545 107.312C58.6198 107.316 58.5973 107.309 58.5828 107.276C58.5713 107.247 58.5879 107.208 58.5828 107.174C58.5785 106.735 58.53 106.299 58.4381 105.865C58.4337 105.848 58.3736 105.824 58.3657 105.796C58.4019 105.686 58.4576 105.32 58.3657 105.451C58.3309 105.455 58.3085 105.448 58.294 105.415C58.2824 105.386 58.3005 105.346 58.294 105.313C58.3121 105.038 58.2882 104.763 58.2216 104.487C58.218 104.471 58.155 104.444 58.1492 104.418C58.1883 104.282 58.2491 103.895 58.1492 104.073C58.0746 103.717 57.9429 103.48 57.5708 103.315C57.1646 103.244 56.7484 103.27 56.3408 103.315C56.12 103.306 55.9325 103.258 55.7623 103.247C55.37 103.251 54.9841 103.229 54.6048 103.178C54.3586 103.224 54.0502 103.178 53.8091 103.109C53.5789 103.131 53.3379 103.154 53.0859 103.178C52.8535 103.136 52.6696 102.818 52.5792 102.626C52.5676 102.481 52.5198 102.366 52.4344 102.281C52.4264 102.241 52.4387 102.189 52.4344 102.144C52.485 102.039 52.485 101.924 52.4344 101.799C52.3627 101.704 52.3178 101.558 52.362 101.454C52.2903 101.371 52.2657 101.256 52.2896 101.109C52.2852 101.091 52.2237 101.065 52.2172 101.04C52.2317 100.923 52.2317 100.808 52.2172 100.696C52.181 100.599 52.1332 100.507 52.0724 100.42C52.0442 100.254 52.0471 100.161 52 99.9374L52.0724 99.4549C52.1064 99.3701 52.0804 99.2784 52.2172 99.248C52.674 99.2804 53.1352 99.297 53.592 99.248L53.5956 99.2494Z" fill="#272727"/>
<path d="M75.3132 100.276C75.5591 100.31 75.846 100.595 75.9289 100.832C76.1152 102.664 75.9125 104.518 75.5865 106.315C75.5406 107.335 75.4618 108.36 75.3125 109.37C75.1317 110.857 75.0407 112.315 75.0386 113.743C75.0372 113.834 75.0722 113.973 74.9701 114.021C74.9009 114.189 74.9324 114.494 74.9701 114.714C74.9681 114.825 75.0112 115.003 74.9016 115.062C74.84 115.205 74.8557 115.582 74.9016 115.825C74.8996 115.936 74.9427 116.114 74.8331 116.172C74.7626 116.372 74.7941 116.69 74.8331 116.935C74.8311 117.046 74.8742 117.224 74.7647 117.283C74.703 117.531 74.7201 117.893 74.7647 118.185C74.7626 118.296 74.8051 118.474 74.6962 118.532C74.6832 118.715 74.6606 118.969 74.6277 119.295C74.677 119.433 74.6236 119.651 74.5592 119.781C74.6065 120.051 74.6133 120.345 74.5592 120.614C74.5784 120.764 74.6017 120.927 74.6277 121.1C74.6256 121.192 74.6619 121.33 74.5592 121.378C74.5024 121.719 74.514 122.172 74.5592 122.558C74.5565 122.654 74.5852 123.04 74.4907 123.044C74.4263 123.481 74.4421 124.024 74.4907 124.502C74.4845 124.701 74.425 124.948 74.4222 125.057C74.3585 125.626 74.3661 126.219 74.4222 126.793C74.4209 127.01 74.4791 127.328 74.3537 127.487C74.3037 127.688 74.3037 127.92 74.3537 128.18C74.312 128.452 74.1181 128.76 73.8743 128.874C72.9868 129.046 72.1273 129.068 71.2965 128.942L71.2739 128.874C71.2411 128.768 71.2233 128.712 71.2055 128.596C71.0883 128.351 71.0363 128.028 71.0507 127.628C70.9979 123.594 71.0041 119.59 71.0685 115.617C71.0075 113.212 71.011 110.803 71.0685 108.398C71.0596 105.846 71.037 103.347 71 100.902C71.0123 100.87 71.0562 100.852 71.0685 100.832C71.1288 100.648 71.2431 100.486 71.4109 100.346C71.4506 100.329 71.5862 100.281 71.6164 100.277C72.8416 100.228 74.086 100.228 75.3125 100.277L75.3132 100.276Z" fill="#272727"/>
<path d="M71.0763 114.135H71.0018C71.0011 111.82 70.9981 109.502 71.0018 107.188H71.0763C71.0763 109.502 71.0644 111.821 71.0763 114.135Z" fill="#272727"/>
<path d="M29.0089 103.631C28.9814 103.517 29.0283 103.344 29.0089 103.219C29.0305 103.316 29.2062 103.511 29.0089 103.631Z" fill="#272727"/>
<path fill-rule="evenodd" clip-rule="evenodd" d="M70.6759 49.97C70.6501 49.9559 70.6189 49.9389 70.5715 49.9232L70.573 49.9204C69.2444 49.3889 67.5957 49.3985 66.2589 49.9204C66.2451 49.9294 66.2329 49.9426 66.221 49.9555C66.2091 49.9683 66.1974 49.981 66.1845 49.9892C65.5637 50.2546 64.9935 50.5984 64.4733 51.0199C63.8957 51.4992 63.3501 52.0032 62.8365 52.532C62.8236 52.5466 62.8059 52.5607 62.7858 52.5768C62.7559 52.6006 62.7206 52.6288 62.6876 52.6695C62.6452 52.8826 62.4271 53.0786 62.241 53.2196C62.2106 53.2647 62.1864 53.3141 62.1623 53.3636C62.1405 53.4083 62.1187 53.4531 62.0922 53.4946C61.9001 53.7284 61.7021 53.9581 61.4974 54.1815C61.4855 54.2023 61.477 54.2324 61.4676 54.2657C61.4564 54.3051 61.444 54.3491 61.423 54.3878C61.292 54.4531 61.19 54.6003 61.1997 54.7316C61.169 54.7824 61.1396 54.8235 61.11 54.8647C61.0671 54.9245 61.024 54.9847 60.9764 55.0754C60.8886 55.1593 60.8141 55.2734 60.7531 55.4192L60.3065 56.1749C60.1837 56.2684 60.1338 56.3606 60.1576 56.4499C60.03 56.6478 59.9294 56.8464 59.8282 57.046C59.7666 57.1676 59.7048 57.2895 59.6366 57.4119L59.2645 58.1676C59.1707 58.2845 59.1215 58.3993 59.1156 58.5114C59.1029 58.5317 59.0922 58.5535 59.0816 58.5752C59.0692 58.6006 59.0568 58.626 59.0412 58.6489C58.9682 58.7651 58.9183 58.8799 58.8923 58.9927C58.8207 59.1201 58.7785 59.2193 58.7318 59.3293C58.7124 59.3748 58.6923 59.4221 58.669 59.474C58.5402 59.6294 58.4554 59.8474 58.4457 60.0241C58.4268 60.0722 58.4058 60.1174 58.3839 60.1647C58.3556 60.2255 58.3257 60.2897 58.2968 60.3679C58.206 60.5419 58.1316 60.7248 58.0735 60.918C58.0639 60.9501 58.054 60.9896 58.0439 61.0306C58.0235 61.1126 58.0018 61.1999 57.9775 61.2426C57.8295 61.5007 57.7262 61.7559 57.6142 62.0327C57.5714 62.1386 57.5272 62.2477 57.4788 62.3613C57.4535 62.5291 57.4215 62.6948 57.3299 62.8426L57.1811 63.2552C56.9578 63.8266 56.7832 64.3977 56.6054 64.9787C56.5502 65.1591 56.4948 65.3403 56.4375 65.5229C56.3206 65.6556 56.2864 65.8371 56.2886 66.0042C56.2311 66.1848 56.1631 66.368 56.0958 66.5493C55.9985 66.8113 55.9027 67.0694 55.842 67.31C55.8941 67.4736 55.8383 67.64 55.7676 67.7913C55.7321 67.9897 55.7144 68.0095 55.6817 68.0461C55.6656 68.064 55.6459 68.086 55.6187 68.1351C55.6165 68.2541 55.6165 68.3689 55.6187 68.4789C55.595 68.5404 55.5595 68.5974 55.5284 68.6471C55.5028 68.6881 55.4803 68.7242 55.4699 68.754C55.4974 68.9355 55.4661 69.1569 55.3954 69.3041C55.3597 69.2999 55.3366 69.3061 55.3217 69.3391C55.3151 69.3543 55.3179 69.3727 55.3208 69.3915C55.3233 69.4085 55.326 69.4259 55.3217 69.4416C55.3404 69.5633 55.3404 69.6781 55.3217 69.7854C55.2696 69.8816 55.2451 69.9965 55.2473 70.1292C55.2306 70.1895 55.2043 70.2521 55.178 70.3148C55.1459 70.3915 55.1136 70.4684 55.0984 70.5417C55.1327 70.6717 55.1327 70.8092 55.0984 70.9543C55.0856 71.0054 55.0588 71.0833 55.0314 71.163C54.9938 71.272 54.9552 71.3844 54.9496 71.4356C55.0084 71.5869 55.0084 71.7017 54.9496 71.7794C54.8614 71.8169 54.8675 71.9101 54.8728 71.9924C54.8742 72.0143 54.8756 72.0354 54.8752 72.0545C54.9317 72.2064 54.9317 72.3666 54.8752 72.5358C54.8743 72.5391 54.8696 72.5452 54.8629 72.5541C54.8456 72.577 54.8147 72.6178 54.8007 72.6733C54.8521 72.9009 54.8521 73.0618 54.8007 73.1546C54.6967 73.2748 54.709 73.4864 54.72 73.6755C54.7234 73.7342 54.7266 73.7906 54.7263 73.8416C54.7762 74.4838 54.8007 75.148 54.8007 75.8342C54.7762 75.9443 54.7516 76.0591 54.7263 76.178C54.7268 76.2076 54.7245 76.2412 54.722 76.2763C54.7137 76.3956 54.7041 76.5327 54.8007 76.5906C54.8558 76.4723 54.8558 76.6326 54.8007 77.0719C54.8151 77.12 54.841 77.1571 54.8583 77.1818C54.8669 77.1942 54.8734 77.2035 54.8752 77.2095C54.9295 77.3545 54.9295 77.4921 54.8752 77.622C54.8768 77.6369 54.8756 77.6522 54.8744 77.6676C54.873 77.6864 54.8715 77.7053 54.8752 77.7238C54.8885 77.7575 54.9139 77.7637 54.9488 77.7595C55.0062 77.6894 55.0062 77.8042 54.9488 78.1033C55.0798 78.6651 55.2101 79.1375 55.3954 79.6842C55.4684 79.7894 55.5197 79.9049 55.4699 80.028C55.5279 80.1923 55.6693 80.4666 55.7676 80.6468C55.8309 80.7438 55.8554 80.8352 55.842 80.9218C55.8529 80.9365 55.869 80.9489 55.8838 80.9604C55.8974 80.971 55.91 80.9807 55.9165 80.9906L56.0653 81.3344C56.5357 82.1087 56.9377 82.7316 57.5532 83.3958C57.7073 83.477 57.8807 83.6372 58.0743 83.8772C58.2626 83.9872 58.4115 84.1247 58.5209 84.2897C58.7876 84.5094 59.1035 84.706 59.4147 84.8997C59.5663 84.994 59.7168 85.0877 59.8599 85.1829L60.3065 85.3892C60.7032 85.654 61.1037 85.8417 61.5711 86.0081C61.7505 85.9861 61.9589 86.0418 62.0922 86.1456C62.1765 86.1702 62.2588 86.1988 62.3412 86.2274C62.4778 86.2748 62.6146 86.3223 62.7613 86.3519C62.9533 86.3271 63.2533 86.3512 63.356 86.4894C63.3961 86.494 63.4378 86.4922 63.4796 86.4904C63.513 86.489 63.5465 86.4876 63.5793 86.4894C63.7944 86.4371 64.0177 86.4371 64.2485 86.4894C64.626 86.55 64.6487 86.5468 64.9434 86.5062C64.9799 86.5011 65.0205 86.4955 65.0665 86.4894C65.2972 86.4378 65.5205 86.4378 65.7356 86.4894C65.7583 86.4878 65.7815 86.4889 65.8046 86.4899C65.8316 86.4911 65.8585 86.4924 65.8845 86.4894C66.116 86.378 66.3884 86.3099 66.7025 86.2831C66.7738 86.2636 66.8418 86.2467 66.9097 86.2298C67.0112 86.2045 67.1125 86.1794 67.2236 86.1456C67.5057 86.0851 67.7788 85.9936 68.0416 85.8706C68.1808 85.8513 68.3051 85.8059 68.4137 85.733C68.473 85.7098 68.54 85.6856 68.607 85.6615C68.6688 85.6392 68.7305 85.617 68.7859 85.5955C68.9735 85.4937 69.2459 85.3562 69.6039 85.1829C69.9262 85.0413 70.119 84.9464 70.4219 84.7704C70.4621 84.6769 70.5619 84.6081 70.7197 84.5641C71.033 84.3613 71.3144 84.1674 71.6121 83.9453C71.7774 83.8806 71.8935 83.7383 71.9843 83.6015C72.2061 83.5224 72.4205 83.3635 72.579 83.1889C72.652 83.1317 72.7259 83.0753 72.7999 83.0189C72.8753 82.9613 72.9508 82.9037 73.0256 82.8451C73.0985 82.7124 73.2429 82.5584 73.3978 82.5013L73.4033 82.4952C73.5196 82.3671 73.5826 82.2976 73.6955 82.1575C73.831 81.9835 73.9791 81.846 74.1421 81.7449C74.1679 81.7123 74.1932 81.6751 74.2172 81.6399C74.2437 81.6009 74.2687 81.5643 74.2909 81.5386C74.4093 81.4403 74.509 81.3262 74.5887 81.1948L74.812 80.9198C74.8221 80.9108 74.8315 80.9023 74.8404 80.8945C74.9695 80.7795 74.9718 80.7774 75.1097 80.576L75.5563 80.0259C75.6098 79.953 75.6632 79.8815 75.7162 79.8105C75.865 79.6111 76.011 79.4154 76.151 79.2015C76.5403 78.6988 76.8812 78.1673 77.1923 77.6206L77.2113 77.5936C77.3752 77.3596 77.4332 77.2768 77.5645 77.0018C79.1484 74.0389 80.4644 70.9096 80.7257 67.5954C81.042 63.5811 79.9121 59.7078 77.7871 56.2471C77.7417 56.113 77.6672 55.9982 77.5638 55.9033C77.5045 55.8225 77.4479 55.7418 77.3913 55.6611C77.3029 55.5351 77.2147 55.4094 77.1172 55.2844L76.0758 53.9787C76.0639 53.9666 76.0513 53.9555 76.0386 53.9443C76.026 53.9331 76.0133 53.922 76.0014 53.9099C75.01 52.7706 73.8324 51.7536 72.5053 50.9546C72.3118 50.7524 72.0639 50.5915 71.7617 50.4733C71.4431 50.2525 71.0955 50.0923 70.7204 49.9919C70.7059 49.9864 70.6919 49.9788 70.6759 49.97ZM72.1605 57.4116C72.099 57.3671 72.037 57.3223 71.9739 57.2842L71.9747 57.2814C70.5314 56.173 68.5478 55.9743 66.9906 57.0064C66.8806 57.063 66.7166 57.1841 66.5704 57.2921C66.507 57.3389 66.4468 57.3834 66.3959 57.4189C65.9218 57.7875 65.5005 58.2001 65.1313 58.6559C65.08 58.7673 65.0055 58.8588 64.908 58.931C64.7457 59.1304 64.5999 59.336 64.4614 59.5498C64.4108 59.6763 64.3364 59.7905 64.2381 59.8936C64.186 60.0236 64.1116 60.1377 64.0148 60.2374C63.9701 60.3157 63.9276 60.3959 63.8851 60.4759C63.8542 60.5342 63.8232 60.5926 63.7915 60.65C63.6672 60.7607 63.6054 60.9106 63.5682 61.0626C63.5547 61.0864 63.5417 61.111 63.5286 61.1357C63.5171 61.1573 63.5056 61.1789 63.4938 61.2001C63.4186 61.264 63.3687 61.3555 63.3449 61.4751C63.3327 61.4963 63.3214 61.5182 63.3101 61.5399C63.2972 61.5646 63.2844 61.5892 63.2705 61.6126L63.1216 61.8877C63.0948 61.9351 63.0718 61.9764 63.0472 62.0252L62.8239 62.5065C62.7978 62.5512 62.7725 62.598 62.7495 62.6441C62.7234 62.7671 62.6825 62.8868 62.6006 62.9879C62.5561 63.0971 62.5145 63.206 62.4728 63.3149C62.4182 63.4577 62.3637 63.6004 62.3029 63.7435C62.2091 63.7958 62.1845 63.9285 62.2284 64.0186C62.2098 64.0572 62.1794 64.0941 62.149 64.1311C62.1236 64.162 62.0982 64.193 62.0796 64.2249C61.9955 64.3466 61.9701 64.4607 62.0051 64.5687C61.978 64.6271 61.9423 64.668 61.9107 64.7043C61.8894 64.7287 61.87 64.7509 61.8563 64.7749L61.7074 65.1875C61.6347 65.346 61.572 65.5137 61.5089 65.6826C61.4764 65.7696 61.4438 65.8568 61.4097 65.9432C61.3881 66.0883 61.3613 66.2375 61.2608 66.3558C61.2392 66.4104 61.2118 66.489 61.1907 66.5496L61.1864 66.562L61.0375 67.0434C61.0216 67.0796 61.0096 67.1163 60.9975 67.1531C60.9869 67.1853 60.9763 67.2175 60.9631 67.2496C60.8797 67.416 60.8551 67.5763 60.8886 67.731C60.8815 67.7477 60.8606 67.7622 60.8427 67.7746C60.8289 67.7842 60.8168 67.7925 60.8142 67.7997L60.6653 68.281C60.6552 68.3288 60.6398 68.3808 60.6251 68.4308C60.6118 68.4757 60.599 68.519 60.5909 68.5561C60.5083 68.7252 60.4569 68.924 60.5165 69.1062C60.4841 69.2301 60.4443 69.3205 60.4053 69.4089C60.3636 69.5036 60.3228 69.596 60.2932 69.725C60.2567 69.8364 60.2202 69.9629 60.2932 70.0688C60.2882 70.0842 60.267 70.0987 60.2485 70.1113C60.2338 70.1214 60.2207 70.1303 60.2187 70.1376L60.1443 70.4814C60.0505 70.8046 60.026 71.1257 60.0699 71.4433C60.0675 71.4691 60.069 71.4954 60.0706 71.5219C60.0724 71.5526 60.0743 71.5835 60.0699 71.6139C60.0572 71.6483 60.0312 71.6531 59.9962 71.6496C59.9389 71.7548 59.9366 71.9879 59.9962 72.0622C59.9404 72.1433 59.9076 72.3634 59.9962 72.406C59.9314 72.7677 59.9329 73.1445 59.9962 73.5055C59.8875 73.6609 59.927 74.015 59.9962 74.1924C60.0312 74.1896 60.0572 74.1938 60.0699 74.2282C60.0748 74.2561 60.0724 74.286 60.07 74.3156C60.0678 74.3443 60.0655 74.3726 60.0699 74.3987C60.0431 74.6462 60.0684 74.8986 60.1443 75.1544C60.247 75.5092 60.3795 75.8495 60.5165 76.1851C60.4822 76.293 60.5068 76.4072 60.5909 76.5289C60.6112 76.5638 60.6313 76.5986 60.6514 76.6332C61.202 77.5837 61.7017 78.4463 62.748 79.0029C62.8112 79.0799 62.9102 79.1487 63.0457 79.2092C63.502 79.4251 64.0372 79.6238 64.5336 79.6905C65.2325 79.7778 65.9017 79.7318 66.5418 79.553C66.5381 79.52 66.544 79.4993 66.5798 79.4856C66.7956 79.4533 67.0026 79.4065 67.211 79.3467C67.3204 79.2704 67.4499 79.2312 67.5831 79.2092C67.6512 79.1852 67.7098 79.1556 67.7693 79.1256C67.8054 79.1074 67.8418 79.089 67.8809 79.0717L68.253 78.8654C68.3615 78.8122 68.4459 78.7559 68.5361 78.6958C68.587 78.6619 68.6397 78.6268 68.6996 78.5903C68.8128 78.5319 68.8872 78.4631 68.9229 78.384C68.9497 78.3699 68.9818 78.3561 69.01 78.344C69.0367 78.3326 69.0599 78.3226 69.0718 78.3153L69.4439 78.0402C69.6881 77.7831 69.8801 77.583 70.1131 77.3533C70.2791 77.2935 70.4012 77.1539 70.4853 77.0095C70.5017 76.9939 70.5184 76.9786 70.535 76.9634C70.5433 76.9559 70.5515 76.9483 70.5597 76.9408L70.783 76.6657C70.8865 76.5908 70.9609 76.4993 71.0063 76.3907C71.343 75.9502 71.6459 75.5192 71.9706 75.057C71.9961 75.0207 72.0218 74.9841 72.0476 74.9474L72.4198 74.3285C72.4711 74.2591 72.5188 74.1924 72.5686 74.1223C72.7108 73.8988 72.8344 73.6698 72.9408 73.4353C72.9772 73.3724 73.0122 73.3064 73.0469 73.2407C73.0612 73.2138 73.0754 73.1869 73.0897 73.1603C73.1701 73.0833 73.2445 72.9946 73.2385 72.8853C73.3844 72.7099 73.4834 72.5036 73.5363 72.2664C73.544 72.2521 73.5517 72.2376 73.5595 72.2231C73.6009 72.1459 73.6438 72.066 73.6851 71.9914C73.8571 71.673 73.9806 71.3519 74.0573 71.0294C74.1078 70.9249 74.1577 70.8385 74.207 70.7535C74.2571 70.6668 74.3066 70.5814 74.355 70.4793L74.8016 69.2423C74.8336 69.1419 74.868 69.0466 74.9024 68.9516C74.9776 68.7435 75.0523 68.5367 75.0994 68.2804C75.703 66.0601 75.7812 63.7559 75.0994 61.614C75.0537 61.4952 74.9919 61.3753 74.9297 61.2545C74.8853 61.1684 74.8407 61.0819 74.8016 60.9952C74.6967 60.5709 74.5232 60.1584 74.2806 59.7582C74.2605 59.7279 74.2373 59.697 74.213 59.6649C74.1861 59.6291 74.158 59.5917 74.1317 59.5519C74.0216 59.3009 73.8429 59.0094 73.6107 58.865C73.5696 58.8106 73.5372 58.7561 73.5042 58.7006C73.4696 58.6424 73.4342 58.5831 73.3874 58.5212C73.0525 58.1423 72.6773 57.8033 72.2717 57.4904C72.2346 57.4653 72.1976 57.4385 72.1605 57.4116Z" fill="#272727"/>
<path d="M17.9397 118.362H17.8652C17.8876 118.094 17.8816 117.739 17.8652 117.469H17.9397C17.9568 117.746 17.956 118.085 17.9397 118.362Z" fill="#272727"/>
<path fill-rule="evenodd" clip-rule="evenodd" d="M43.5618 98.6015C43.4764 98.5878 43.3922 98.5743 43.3057 98.5678L43.3087 98.5664C43.04 98.6173 42.7601 98.6104 42.4907 98.5664C42.3446 98.596 42.3344 98.6761 42.3251 98.7494C42.3217 98.7765 42.3184 98.8026 42.3083 98.8249C42.2986 98.846 42.2642 98.8647 42.2354 98.8802C42.2135 98.8921 42.1949 98.9022 42.193 98.9102C42.2466 99.0415 42.2466 99.1791 42.193 99.3228C42.1854 99.356 42.1743 99.3916 42.1627 99.4286C42.1457 99.4827 42.1278 99.5399 42.1185 99.5978C42.1535 99.824 42.1535 100.054 42.1185 100.285C42.112 100.324 42.1014 100.366 42.0899 100.41C42.0736 100.474 42.0554 100.544 42.0441 100.629C42.0806 100.788 42.1029 100.922 41.9697 101.041C41.9658 101.075 41.9673 101.138 41.969 101.206C41.9705 101.269 41.9722 101.335 41.9697 101.385C42.0262 101.495 42.027 101.62 41.9697 101.729C41.9712 101.819 42.0095 101.875 42.0305 101.907C42.04 101.921 42.0459 101.929 42.0433 101.934C42.0369 101.944 42.0261 101.94 42.013 101.936C41.9777 101.924 41.9256 101.906 41.8952 102.141C41.9339 102.321 41.9339 102.504 41.8952 102.691C41.8878 102.731 41.8767 102.77 41.8652 102.809C41.8456 102.877 41.825 102.947 41.8208 103.035C41.8774 103.21 41.8774 103.393 41.8208 103.585C41.8153 103.615 41.8032 103.653 41.7901 103.695C41.7731 103.749 41.7544 103.808 41.7464 103.86C41.7888 104.086 41.7888 104.315 41.7464 104.547C41.7385 104.596 41.7285 104.645 41.7181 104.696C41.7019 104.775 41.6846 104.86 41.6719 104.96C41.7032 105.14 41.7032 105.324 41.6719 105.51C41.667 105.536 41.6557 105.569 41.6433 105.605C41.6238 105.662 41.6016 105.727 41.5975 105.785C41.6541 105.96 41.6541 106.144 41.5975 106.335C41.5912 106.377 41.5836 106.422 41.5759 106.468C41.5526 106.607 41.527 106.76 41.5231 106.885C41.5826 107.017 41.5826 107.166 41.5231 107.298C41.5246 107.387 41.5624 107.443 41.5832 107.474C41.5928 107.489 41.5988 107.498 41.596 107.502C41.5875 107.516 41.5753 107.512 41.5614 107.508C41.5244 107.498 41.4751 107.484 41.4486 107.779C41.4918 108.004 41.4918 108.233 41.4486 108.466C41.4408 108.519 41.43 108.575 41.419 108.632C41.3986 108.738 41.3776 108.847 41.3742 108.947C41.4337 109.079 41.4337 109.228 41.3742 109.36C41.3763 109.45 41.415 109.508 41.4357 109.539C41.4448 109.553 41.4504 109.561 41.4479 109.565C41.4465 109.567 41.4374 109.566 41.4242 109.566C41.3868 109.565 41.3171 109.563 41.3027 109.609C41.3 109.617 41.3007 109.677 41.3016 109.748C41.3026 109.831 41.3038 109.93 41.2998 109.979C41.3697 110.241 41.3452 110.47 41.2253 110.666C41.2286 110.703 41.2837 110.753 41.3294 110.795C41.3464 110.811 41.3622 110.825 41.3735 110.837C41.1674 110.887 41.2084 110.995 41.2549 111.118C41.2753 111.171 41.2968 111.228 41.299 111.284C41.3132 111.55 41.2633 111.779 41.1502 111.971C41.1539 112.008 41.2089 112.058 41.2546 112.1C41.2718 112.116 41.2876 112.13 41.299 112.143C41.1559 112.177 41.1553 112.239 41.1544 112.347C41.1541 112.378 41.1538 112.412 41.1502 112.451C41.1926 112.719 41.2261 113.029 41.1502 113.276C41.1494 113.287 41.1346 113.308 41.1175 113.331C41.066 113.402 40.9935 113.501 41.2238 113.483C41.2437 113.548 41.2036 113.55 41.1617 113.552C41.1313 113.554 41.0999 113.556 41.0899 113.582C41.0656 113.644 41.0954 113.77 41.121 113.878C41.1356 113.94 41.1488 113.996 41.1502 114.031C41.1248 114.284 41.0995 114.513 41.0757 114.718C41.075 114.729 41.0608 114.748 41.0442 114.771C40.9926 114.841 40.9174 114.943 41.1494 114.925V114.992C40.9796 114.955 40.9891 115.141 40.9982 115.319C41.001 115.374 41.0037 115.428 41.0013 115.474L41.0266 115.691C41.0579 116 41.0244 116.203 40.9269 116.299C40.9322 116.361 40.9386 116.429 40.9455 116.502C40.9695 116.755 40.9984 117.061 41.0013 117.33C40.9403 117.574 40.9358 117.849 41.0013 118.085C40.9164 118.168 40.8867 118.314 40.9269 118.429C40.9196 118.49 40.9092 118.55 40.8985 118.612C40.8796 118.721 40.8595 118.837 40.8524 118.979C40.8949 119.335 40.8844 119.705 40.8584 120.062C40.8085 119.986 40.7936 120.064 40.778 120.148C40.778 120.151 40.7819 120.158 40.788 120.167C40.8063 120.197 40.844 120.257 40.8524 120.355C40.8063 120.463 40.8063 120.577 40.8524 120.698C40.8523 120.7 40.8486 120.704 40.8431 120.709C40.8242 120.729 40.7832 120.771 40.778 120.836C40.8174 121.191 40.8107 121.561 40.7832 121.918C40.7348 121.842 40.7184 121.921 40.7036 122.004C40.713 122.048 40.7654 122.096 40.8105 122.137C40.8257 122.151 40.84 122.164 40.8517 122.176C40.6609 122.222 40.6882 122.305 40.7228 122.412C40.7394 122.463 40.7578 122.519 40.7542 122.579C40.7524 122.61 40.734 122.637 40.7197 122.658C40.7106 122.672 40.7031 122.683 40.7028 122.691C40.7304 123.02 40.7557 123.34 40.7772 123.653C40.7557 123.785 40.7304 123.923 40.7028 124.066C40.6745 124.006 40.6492 124.006 40.6284 124.066C40.646 124.321 40.6408 124.448 40.6322 124.657C40.631 124.687 40.6297 124.719 40.6284 124.753C40.6812 124.974 40.7021 125.231 40.6284 125.439C40.6262 125.478 40.6138 125.541 40.5997 125.614C40.58 125.714 40.557 125.832 40.5539 125.921C40.6224 126.19 40.615 126.477 40.5539 126.745C40.5437 126.872 40.5471 126.961 40.5506 127.052C40.5527 127.106 40.5548 127.162 40.5539 127.227C40.5398 127.522 40.4899 127.797 40.4051 128.051C40.4008 128.142 40.4024 128.234 40.404 128.326C40.4052 128.395 40.4064 128.464 40.4051 128.532C40.4654 128.851 40.4572 129.176 40.4051 129.494C40.4215 129.683 40.4878 129.707 40.5254 129.721C40.5406 129.726 40.5511 129.73 40.5517 129.742C40.5553 129.807 40.5457 129.849 40.5379 129.884C40.5196 129.965 40.5109 130.003 40.7028 130.182C40.6827 130.359 40.9358 130.435 41.1129 130.423C42.0352 130.362 42.9395 130.259 43.8268 130.113C43.8513 130.097 43.8826 130.066 43.9012 130.044L44.0501 129.769C44.0882 129.676 44.0958 129.636 44.1069 129.578C44.1115 129.555 44.1166 129.529 44.1245 129.494C44.1223 129.326 44.1468 129.166 44.1989 129.013C44.2062 128.955 44.217 128.886 44.2282 128.816C44.2478 128.691 44.2686 128.559 44.2734 128.463C44.2101 128.171 44.2071 127.86 44.2734 127.57C44.2785 127.521 44.2837 127.473 44.2889 127.425C44.3109 127.222 44.3327 127.02 44.3478 126.814C44.2942 126.518 44.2763 126.216 44.3478 125.921C44.3546 125.789 44.3693 125.657 44.3841 125.525C44.3998 125.383 44.4157 125.24 44.4222 125.096C44.3657 124.757 44.3515 124.405 44.4222 124.066C44.4294 123.889 44.444 123.713 44.4587 123.537C44.4746 123.346 44.4905 123.156 44.4967 122.966C44.4416 122.441 44.4252 121.909 44.4967 121.385C44.499 121.321 44.5009 121.257 44.5028 121.195C44.5142 120.811 44.5244 120.466 44.6455 120.08C44.7319 119.963 44.88 119.895 45.0921 119.873C45.5871 119.839 46.0843 119.838 46.5845 119.872L46.6545 119.804C47.1472 119.868 47.6481 119.854 48.1424 119.804C48.6366 119.775 49.1346 119.775 49.634 119.804L49.704 119.736L50.0136 119.771C50.4639 119.704 50.8316 119.738 51.1175 119.873C51.4721 120.196 51.5854 120.566 51.7202 121.006C51.7305 121.04 51.7409 121.074 51.7516 121.109C51.9928 121.886 52.266 122.91 52.429 123.698C52.4759 123.925 52.5433 124.176 52.6149 124.444C52.7749 125.041 52.9558 125.715 52.9753 126.363C52.9757 126.385 53.0135 126.394 53.0518 126.403C53.09 126.411 53.1286 126.42 53.1316 126.443C53.1382 126.492 53.111 126.547 53.0857 126.597C53.0655 126.638 53.0465 126.676 53.0475 126.707C53.0482 126.727 53.0853 126.735 53.1234 126.745C53.1627 126.754 53.203 126.763 53.206 126.786C53.2126 126.836 53.1853 126.89 53.1601 126.941C53.1398 126.981 53.1209 127.019 53.1219 127.05C53.1227 127.07 53.1598 127.079 53.198 127.088C53.2374 127.097 53.2778 127.107 53.2805 127.129C53.2866 127.178 53.2599 127.232 53.2351 127.281C53.2146 127.323 53.1954 127.361 53.1971 127.392C53.1984 127.416 53.2424 127.425 53.2792 127.433C53.304 127.438 53.3256 127.443 53.3289 127.451C53.4218 127.673 53.4197 127.997 53.418 128.262C53.4174 128.347 53.4169 128.426 53.4197 128.493C53.4208 128.514 53.4588 128.522 53.497 128.531C53.536 128.539 53.5752 128.548 53.576 128.569C53.5769 128.596 53.5595 128.627 53.5413 128.659C53.5158 128.703 53.4887 128.751 53.5082 128.794C53.5101 128.799 53.5246 128.802 53.5438 128.806C53.5789 128.813 53.6294 128.823 53.6467 128.853C53.677 128.904 53.6898 128.951 53.7018 128.994C53.7242 129.076 53.7435 129.146 53.8692 129.219C54.7803 129.245 55.7449 129.191 56.6255 128.996L56.8443 128.806C56.9924 128.542 57.0617 128.251 57.0699 127.951C55.1681 117.862 50.95 108.391 46.2198 99.2086C46.12 99.0436 45.9548 98.8036 45.7553 98.739C45.6584 98.7074 45.5874 98.7185 45.5209 98.7289C45.4744 98.7362 45.4302 98.7431 45.3809 98.7349C45.3364 98.7277 45.2973 98.7124 45.2552 98.6959C45.1923 98.6713 45.1225 98.6439 45.0169 98.6365C44.6232 98.6826 44.2183 98.7108 43.8268 98.6365C43.7349 98.6293 43.6478 98.6153 43.5618 98.6015ZM44.962 107.289C44.9642 107.304 44.9662 107.317 44.9624 107.326L44.9639 107.326C44.9208 107.508 44.8888 107.698 44.9639 107.876C44.9578 107.963 44.94 108.062 44.9222 108.159C44.91 108.227 44.8977 108.295 44.8895 108.358C44.8322 108.616 44.8322 108.868 44.8895 109.113C44.8824 109.283 44.8606 109.449 44.8386 109.616C44.8305 109.677 44.8224 109.739 44.8151 109.8C44.754 110.07 44.7473 110.354 44.8151 110.625C44.8099 110.774 44.7931 110.921 44.7764 111.068C44.762 111.195 44.7475 111.321 44.7406 111.449L44.6662 112.342C44.6707 112.564 44.6714 112.793 44.6662 113.029L44.5918 114.129C44.593 114.155 44.5942 114.181 44.5954 114.208C44.608 114.49 44.6226 114.818 44.7198 115.076C44.7251 115.09 44.7303 115.104 44.7354 115.117C44.7974 115.285 44.8456 115.415 45.0376 115.503C46.0246 115.581 47.016 115.604 48.0127 115.572C48.233 115.633 48.4586 115.608 48.6819 115.572C48.7637 115.532 48.9245 115.382 48.9513 115.299C48.9595 115.274 48.9625 114.82 48.9565 114.792C48.9231 114.628 48.8075 114.411 48.6962 114.201C48.6163 114.051 48.5386 113.905 48.495 113.786C47.8214 111.947 47.0882 109.973 46.2419 108.171C46.2336 108.154 46.2238 108.133 46.2127 108.109C46.0999 107.868 45.8556 107.347 45.7261 107.255C45.5572 107.136 45.1314 107.068 44.9788 107.205C44.953 107.228 44.9579 107.261 44.962 107.289Z" fill="#272727"/>
</g>
</svg>
